<svg width="24" height="24" viewBox="0 0 24 24" fill="none" xmlns="http://www.w3.org/2000/svg">
<path d="M14.9748 3.01879L15.9346 1.2872C15.9469 1.26499 15.9547 1.24056 15.9576 1.21533C15.9605 1.19009 15.9584 1.16453 15.9514 1.14012C15.9444 1.1157 15.9326 1.0929 15.9168 1.07302C15.901 1.05314 15.8814 1.03657 15.8592 1.02426C15.8143 0.999384 15.7614 0.993353 15.7121 1.00749C15.6628 1.02163 15.6211 1.05478 15.5963 1.09964L14.6258 2.85042C13.7978 2.48743 12.9035 2.30002 11.9994 2.30002C11.0954 2.30002 10.2011 2.48743 9.37307 2.85042L8.40259 1.09964C8.37772 1.05478 8.33604 1.02163 8.28673 1.00749C8.23742 0.993353 8.18451 0.999384 8.13964 1.02426C8.09478 1.04913 8.06163 1.0908 8.04749 1.14012C8.03336 1.18943 8.03939 1.24234 8.06426 1.2872L9.02411 3.0188C8.11044 3.46917 7.33845 4.16247 6.79282 5.02265C6.24719 5.88283 5.949 6.87667 5.93095 7.89515H18.0679C18.0499 6.87667 17.7517 5.88283 17.2061 5.02265C16.6604 4.16246 15.8885 3.46916 14.9748 3.01879ZM9.19854 5.67439C9.0983 5.67439 9.00032 5.64467 8.91698 5.58898C8.83363 5.53329 8.76868 5.45414 8.73032 5.36153C8.69196 5.26893 8.68192 5.16703 8.70148 5.06872C8.72103 4.97041 8.7693 4.88011 8.84018 4.80923C8.91105 4.73835 9.00136 4.69008 9.09967 4.67053C9.19798 4.65097 9.29988 4.66101 9.39248 4.69937C9.48509 4.73773 9.56424 4.80269 9.61993 4.88603C9.67562 4.96937 9.70534 5.06736 9.70534 5.16759C9.70519 5.30196 9.65175 5.43078 9.55674 5.52579C9.46172 5.6208 9.33291 5.67424 9.19854 5.67439ZM14.8003 5.67439C14.7001 5.67439 14.6021 5.64467 14.5188 5.58898C14.4354 5.53329 14.3705 5.45414 14.3321 5.36153C14.2937 5.26893 14.2837 5.16703 14.3033 5.06872C14.3228 4.97041 14.3711 4.88011 14.442 4.80923C14.5128 4.73835 14.6031 4.69008 14.7014 4.67053C14.7998 4.65097 14.9017 4.66101 14.9943 4.69937C15.0869 4.73773 15.166 4.80269 15.2217 4.88603C15.2774 4.96937 15.3071 5.06736 15.3071 5.16759C15.307 5.30196 15.2535 5.43078 15.1585 5.52579C15.0635 5.6208 14.9347 5.67424 14.8003 5.67439ZM5.93086 17.1714C5.93086 17.5605 6.08543 17.9337 6.36057 18.2088C6.63571 18.4839 7.00888 18.6385 7.39799 18.6385H8.37159V21.6395C8.3711 21.8184 8.40594 21.9957 8.47409 22.1612C8.54224 22.3267 8.64237 22.4771 8.76875 22.6038C8.89513 22.7306 9.04527 22.8311 9.21057 22.8997C9.37587 22.9683 9.55308 23.0036 9.73205 23.0036C9.91101 23.0036 10.0882 22.9683 10.2535 22.8997C10.4188 22.8311 10.569 22.7306 10.6953 22.6038C10.8217 22.4771 10.9219 22.3267 10.99 22.1612C11.0582 21.9957 11.093 21.8184 11.0925 21.6395V18.6385H12.9064V21.6395C12.9059 21.8184 12.9407 21.9957 13.0089 22.1612C13.077 22.3267 13.1771 22.4771 13.3035 22.6038C13.4299 22.7306 13.58 22.8311 13.7453 22.8997C13.9106 22.9683 14.0878 23.0036 14.2668 23.0036C14.4458 23.0036 14.623 22.9683 14.7883 22.8997C14.9536 22.8311 15.1037 22.7306 15.2301 22.6038C15.3565 22.4771 15.4566 22.3267 15.5248 22.1612C15.5929 21.9957 15.6278 21.8184 15.6273 21.6395V18.6385H16.6009C16.99 18.6385 17.3632 18.4839 17.6383 18.2088C17.9135 17.9337 18.068 17.5605 18.068 17.1714V8.37525H5.93086V17.1714ZM4.06358 8.14184C3.70289 8.14225 3.35709 8.28572 3.10205 8.54076C2.847 8.79581 2.70354 9.14161 2.70313 9.5023V15.1708C2.70264 15.3497 2.73748 15.527 2.80563 15.6925C2.87378 15.858 2.97391 16.0084 3.10029 16.1351C3.22667 16.2619 3.37681 16.3624 3.54211 16.431C3.70741 16.4996 3.88462 16.5349 4.06359 16.5349C4.24255 16.5349 4.41976 16.4996 4.58506 16.431C4.75036 16.3624 4.9005 16.2619 5.02688 16.1351C5.15326 16.0084 5.25339 15.858 5.32154 15.6925C5.38969 15.527 5.42453 15.3497 5.42404 15.1708V9.5023C5.42363 9.14161 5.28017 8.79581 5.02512 8.54076C4.77007 8.28571 4.42427 8.14225 4.06358 8.14184ZM19.9353 8.14184C19.5746 8.14225 19.2288 8.28571 18.9737 8.54076C18.7187 8.79581 18.5752 9.14161 18.5748 9.5023V15.1708C18.5743 15.3497 18.6092 15.527 18.6773 15.6925C18.7455 15.858 18.8456 16.0084 18.972 16.1351C19.0984 16.2619 19.2485 16.3624 19.4138 16.431C19.5791 16.4996 19.7563 16.5349 19.9353 16.5349C20.1142 16.5349 20.2915 16.4996 20.4568 16.431C20.6221 16.3624 20.7722 16.2619 20.8986 16.1351C21.0249 16.0084 21.1251 15.858 21.1932 15.6925C21.2614 15.527 21.2962 15.3497 21.2957 15.1708V9.5023C21.2953 9.14161 21.1519 8.79581 20.8968 8.54076C20.6418 8.28572 20.296 8.14225 19.9353 8.14184Z" fill="#512B2B"/>
</svg>
