<svg width="24" height="24" viewBox="0 0 24 24" fill="none" xmlns="http://www.w3.org/2000/svg">
<g clip-path="url(#clip0)">
<path d="M12 24C18.6274 24 24 18.6274 24 12C24 5.37258 18.6274 0 12 0C5.37258 0 0 5.37258 0 12C0 18.6274 5.37258 24 12 24Z" fill="#512B2B"/>
<path opacity="0.1" d="M3.68254 3.375C2.46265 4.46206 1.47761 5.78679 0.787809 7.268C0.098003 8.74921 -0.282039 10.3557 -0.329022 11.989C-0.376005 13.6223 -0.08894 15.2479 0.514578 16.7663C1.1181 18.2848 2.02535 19.6639 3.18073 20.8193C4.33612 21.9747 5.71528 22.8819 7.2337 23.4855C8.75211 24.089 10.3778 24.376 12.0111 24.3291C13.6443 24.2821 15.2508 23.902 16.732 23.2122C18.2133 22.5224 19.538 21.5374 20.625 20.3175L3.68254 3.375Z" fill="white"/>
<path d="M2.77489 15.4692C2.70489 15.4703 2.63542 15.4569 2.57088 15.4297C2.50633 15.4026 2.44811 15.3624 2.39989 15.3117C2.35035 15.2627 2.31119 15.2043 2.28478 15.1399C2.25836 15.0754 2.24522 15.0063 2.24614 14.9367C2.24564 14.8671 2.25897 14.7981 2.28537 14.7337C2.31176 14.6694 2.35069 14.6109 2.39989 14.5617C2.44764 14.5101 2.50568 14.469 2.57028 14.4413C2.63487 14.4135 2.70458 14.3996 2.77489 14.4004C2.8451 14.4003 2.91459 14.4145 2.97909 14.4422C3.04359 14.4699 3.10172 14.5106 3.14989 14.5617C3.19994 14.6104 3.23967 14.6688 3.26673 14.7332C3.29378 14.7976 3.30761 14.8668 3.30739 14.9367C3.30804 15.0066 3.29441 15.0759 3.26733 15.1404C3.24025 15.2049 3.20028 15.2632 3.14989 15.3117C3.10126 15.3619 3.04296 15.4017 2.97851 15.4288C2.91406 15.4559 2.84479 15.4696 2.77489 15.4692Z" fill="white"/>
<path d="M10.2257 15.3753H9.2432L5.72945 9.92281C5.64193 9.78847 5.56901 9.64515 5.51195 9.49531H5.48195C5.51535 9.80663 5.52787 10.1198 5.51945 10.4328V15.3753H4.7207V8.53906H5.75945L9.17945 13.8941C9.32195 14.1166 9.41445 14.2691 9.45695 14.3516H9.4757C9.43613 14.0181 9.41984 13.6823 9.42695 13.3466V8.53906H10.2257V15.3753Z" fill="white"/>
<path d="M15.6337 15.3753H12V8.53906H15.465V9.26281H12.8175V11.5353H15.285V12.2553H12.8175V14.6253H15.6375L15.6337 15.3753Z" fill="white"/>
<path d="M21.0012 9.26281H19.0137V15.3753H18.215V9.26281H16.25V8.53906H21.0012V9.26281Z" fill="white"/>
</g>
<defs>
<clipPath id="clip0">
<rect width="24" height="24" fill="white"/>
</clipPath>
</defs>
</svg>
