<svg width="43" height="18" viewBox="0 0 43 18" fill="none" xmlns="http://www.w3.org/2000/svg">
<g clip-path="url(#clip0)">
<mask id="mask0" mask-type="alpha" maskUnits="userSpaceOnUse" x="0" y="0" width="43" height="18">
<path d="M0 0H42.7582V17.7318H0V0Z" fill="white"/>
</mask>
<g mask="url(#mask0)">
<path fill-rule="evenodd" clip-rule="evenodd" d="M8.02817 7.00671V4.03946C8.02817 3.00278 8.85936 2.14488 9.90272 2.14488C10.6633 2.14488 11.3529 2.62753 11.6535 3.34234L8.02817 7.00671ZM21.5737 4.37932C21.5737 3.14586 22.2812 2.25197 23.4305 2.25197C24.5623 2.25197 25.305 3.11017 25.305 4.34332V9.25915C25.305 10.4032 24.8454 11.4756 23.3421 11.4756H22.8646V13.4419H23.3421C24.7391 13.4419 25.4997 12.9415 26.6843 11.7438L34.7303 3.59281V10.6891C34.7303 12.6911 35.8974 13.5313 37.2238 13.5313C38.1257 13.5313 38.6737 13.2097 39.5049 12.3695L42.7763 9.06237L41.4323 7.77553L38.1257 11.0823C37.6835 11.5113 37.4888 11.583 37.3123 11.583C36.8876 11.583 36.6226 11.2611 36.6226 10.7965V1.42976C36.6226 0.822034 36.3217 0.33939 35.6852 0.33939C35.4199 0.33939 35.1902 0.42878 34.7303 0.893424L27.1971 8.52634V4.03946C27.1971 1.9481 25.4997 0.25 23.4305 0.25C22.299 0.25 21.5031 0.625254 20.3713 1.76932L11.5295 10.7071C10.8755 11.3685 10.5039 11.583 9.8674 11.583C8.87716 11.583 8.02817 10.7428 8.02817 9.7061L13.3509 4.30763C13.5631 4.09315 13.6693 3.78929 13.634 3.48542C13.3509 1.64424 11.7595 0.25 9.90272 0.25C8.87716 0.25 8.02817 0.535864 6.79044 1.78732L0 8.66912L1.34396 10.01L6.13612 5.16583V9.43793C6.13612 11.9405 7.78068 13.4776 9.90272 13.4776C11.1229 13.4776 11.8479 13.0843 12.9266 11.9939L19.6817 5.16583V18.0001H21.5737V4.37932Z" fill="#512B2B"/>
</g>
</g>
<defs>
<clipPath id="clip0">
<rect width="42.8571" height="18" fill="white"/>
</clipPath>
</defs>
</svg>
