<svg width="24" height="24" viewBox="0 0 24 24" fill="none" xmlns="http://www.w3.org/2000/svg">
<path d="M7.19945 1.44043C4.02425 1.44043 1.43945 4.02523 1.43945 7.20043V16.8004C1.43945 19.9756 4.02425 22.5604 7.19945 22.5604H16.7995C19.9747 22.5604 22.5595 19.9756 22.5595 16.8004V7.20043C22.5595 4.02523 19.9747 1.44043 16.7995 1.44043H7.19945ZM7.19945 2.40043H16.7995C19.4563 2.40043 21.5995 4.54363 21.5995 7.20043V16.8004C21.5995 19.4572 19.4563 21.6004 16.7995 21.6004H7.19945C4.54265 21.6004 2.39945 19.4572 2.39945 16.8004V7.20043C2.39945 4.54363 4.54265 2.40043 7.19945 2.40043ZM5.57465 8.67211C5.23721 8.67211 4.98905 8.91307 4.98905 9.22891C4.98905 9.54091 5.23721 9.78139 5.57465 9.78139C5.91209 9.78139 6.16169 9.54139 6.16169 9.22939C6.16169 8.91259 5.91209 8.67259 5.57465 8.67259V8.67211ZM10.5772 8.94571C8.83049 8.94571 7.73369 10.1697 7.73369 12.1353C7.73369 14.0971 8.80937 15.3287 10.5772 15.3287C12.3407 15.3287 13.4121 14.0927 13.4121 12.1353C13.4121 10.1735 12.3321 8.94667 10.5772 8.94619V8.94571ZM16.7836 8.94571C15.455 8.94571 14.5684 9.66715 14.5684 10.7515C14.5684 11.6457 15.07 12.178 16.1716 12.4353L16.9559 12.6259C17.7623 12.8155 18.1166 13.0934 18.1166 13.5575C18.1166 14.0975 17.5598 14.4897 16.8004 14.4897C15.9868 14.4897 15.4214 14.123 15.3407 13.5455H14.4033C14.4705 14.6342 15.3777 15.3297 16.7275 15.3297C18.1703 15.3297 19.0727 14.6001 19.0727 13.4356C19.0727 12.5203 18.5582 12.0139 17.3097 11.723L16.6391 11.5579C15.8462 11.3721 15.5255 11.1235 15.5255 10.6891C15.5255 10.1404 16.0233 9.78187 16.7702 9.78187C17.4791 9.78187 17.9678 10.1313 18.0566 10.6924H18.9763C18.9215 9.66715 18.0196 8.94619 16.7836 8.94619V8.94571ZM10.5772 9.82747C11.734 9.82747 12.4468 10.7222 12.4468 12.1353C12.4468 13.5398 11.7331 14.4475 10.5772 14.4475C9.40889 14.4475 8.70041 13.5403 8.70041 12.1353C8.70041 10.7222 9.43001 9.82795 10.5772 9.82747ZM5.12393 10.5878V15.1814H6.02633V10.5878H5.12393Z" fill="#512B2B"/>
</svg>
