<svg width="22" height="24" viewBox="0 0 22 24" fill="none" xmlns="http://www.w3.org/2000/svg">
<path d="M10.6495 24C10.3188 24 10.0101 23.9118 9.72347 23.7575L6.791 22.0156C6.35002 21.7731 6.57051 21.6849 6.7028 21.6408C7.29812 21.4424 7.40836 21.3983 8.02572 21.0455C8.09187 21.0014 8.18006 21.0234 8.24621 21.0675L10.4952 22.4125C10.5834 22.4566 10.6936 22.4566 10.7598 22.4125L19.5572 17.3192C19.6454 17.2751 19.6895 17.187 19.6895 17.0767V6.91226C19.6895 6.80202 19.6454 6.71383 19.5572 6.66973L10.7598 1.59853C10.6716 1.55443 10.5613 1.55443 10.4952 1.59853L1.69775 6.66973C1.60955 6.71383 1.56546 6.82407 1.56546 6.91226V17.0767C1.56546 17.1649 1.60955 17.2751 1.69775 17.3192L4.10106 18.7083C5.40193 19.3698 6.21773 18.5981 6.21773 17.8264V7.79421C6.21773 7.66192 6.32797 7.52963 6.48231 7.52963H7.6068C7.73909 7.52963 7.87138 7.63987 7.87138 7.79421V17.8264C7.87138 19.5682 6.92329 20.5825 5.26964 20.5825C4.76252 20.5825 4.36564 20.5825 3.24116 20.0312L0.926045 18.7083C0.352779 18.3776 0 17.7602 0 17.0988V6.93431C0 6.27285 0.352779 5.65549 0.926045 5.32476L9.72347 0.231511C10.2747 -0.0771704 11.0243 -0.0771704 11.5756 0.231511L20.373 5.32476C20.9463 5.65549 21.299 6.27285 21.299 6.93431V17.0988C21.299 17.7602 20.9463 18.3776 20.373 18.7083L11.5756 23.8016C11.2889 23.9339 10.9582 24 10.6495 24ZM13.3615 17.0106C9.50299 17.0106 8.70923 15.2467 8.70923 13.7474C8.70923 13.6151 8.81948 13.4828 8.97382 13.4828H10.1203C10.2526 13.4828 10.3629 13.571 10.3629 13.7033C10.5393 14.8718 11.0464 15.4451 13.3836 15.4451C15.2356 15.4451 16.0294 15.0262 16.0294 14.034C16.0294 13.4607 15.8089 13.0418 12.9205 12.7552C10.5172 12.5126 9.01791 11.9835 9.01791 10.0652C9.01791 8.27928 10.5172 7.22095 13.0308 7.22095C15.853 7.22095 17.2421 8.19109 17.4185 10.3078C17.4185 10.3739 17.3964 10.4401 17.3523 10.5062C17.3082 10.5503 17.2421 10.5944 17.1759 10.5944H16.0294C15.9192 10.5944 15.8089 10.5062 15.7869 10.396C15.5223 9.18328 14.8388 8.7864 13.0308 8.7864C11.0023 8.7864 10.7598 9.49196 10.7598 10.0211C10.7598 10.6605 11.0464 10.859 13.7804 11.2118C16.4924 11.5645 17.7712 12.0717 17.7712 13.9678C17.7492 15.9081 16.1617 17.0106 13.3615 17.0106Z" fill="#512B2B"/>
</svg>
