<svg height='100px' width='100px'  fill="#000000" xmlns="http://www.w3.org/2000/svg" xmlns:xlink="http://www.w3.org/1999/xlink" version="1.1" x="0px" y="0px" viewBox="0 0 100 100" style="enable-background:new 0 0 100 100;" xml:space="preserve"><polygon points="51,75.5 30,66.1 30,38.3 51,47.8 51,44.1 31.7,35.4 51,26.8 51,20.3 16,20.3 16,80.8 51,80.8 "></polygon><path d="M70.8,41.9l-13.2,6v-3.7l12.7-5.7c0.4-0.1,0.7-0.2,0.8-0.4l0.2-0.1l5.9-2.6l-4.9-2.2c-0.4-0.2-2.6-1.3-2.9-1.4l-11.7-5.2  V12.9c0-2.9-2.3-5.2-5.2-5.2H14.6c-2.9,0-5.2,2.3-5.2,5.2v74.6c0,2.9,2.3,5.2,5.2,5.2h37.8c2.9,0,5.2-2.3,5.2-5.2V75.7l21.2-9.5  V38.3l-7.1,3.2C71.3,41.7,71,41.8,70.8,41.9z M26.6,10.3h11.7c0.6,0,1.1,0.5,1.1,1.1c0,0.6-0.5,1.1-1.1,1.1H26.6  c-0.6,0-1.1-0.5-1.1-1.1C25.4,10.8,25.9,10.3,26.6,10.3z M53.3,83.1H13.7v-65h39.7V83.1z"></path><path d="M79.5,18.1c-0.8-0.2-1.6,0.2-1.8,1l-1.6,5.5c-0.1,0.4,0,0.8,0.2,1.2c0.2,0.3,0.5,0.5,0.8,0.6c0.8,0.2,1.6-0.2,1.8-1l1.6-5.5  C80.7,19.1,80.3,18.3,79.5,18.1z"></path><path d="M92.6,27.8C92.6,27.8,92.6,27.8,92.6,27.8c-0.4-0.7-1.3-0.9-2-0.4l-4.8,3.1c-0.7,0.4-0.9,1.3-0.4,2c0,0,0,0,0,0  c0.4,0.7,1.3,0.9,2,0.4l4.8-3.1C92.8,29.4,93,28.5,92.6,27.8z"></path><path d="M94.8,42.3l-5.7-0.5c-0.8-0.1-1.5,0.5-1.5,1.3c0,0.3,0.1,0.6,0.2,0.9c0.2,0.4,0.6,0.6,1.1,0.7l5.7,0.5  c0.8,0.1,1.5-0.5,1.5-1.3C96.2,43,95.6,42.4,94.8,42.3z"></path></svg>