<svg width="24" height="12" viewBox="0 0 24 12" fill="none" xmlns="http://www.w3.org/2000/svg">
<path d="M1.81896 2.67188H5.22792C6.22848 2.68027 6.95352 2.96875 7.40304 3.53683C7.85256 4.10491 8.00088 4.88083 7.84824 5.86459C7.78896 6.31411 7.65744 6.75499 7.45392 7.18747C7.2588 7.61995 6.9876 8.00995 6.63984 8.35771C6.21576 8.79859 5.76216 9.07843 5.2788 9.19723C4.79544 9.31603 4.29504 9.37531 3.77784 9.37531H2.25144L1.76808 11.7921H0L1.81896 2.67188ZM3.3072 4.12196L2.544 7.93795C2.59488 7.94635 2.64576 7.95067 2.69664 7.95067C2.75592 7.95067 2.81544 7.95067 2.87472 7.95067C3.6888 7.95907 4.36728 7.87867 4.90992 7.70899C5.45256 7.53091 5.81736 6.91195 6.00384 5.85187C6.15648 4.96147 6.00384 4.44835 5.54592 4.31275C5.0964 4.17715 4.53264 4.11356 3.85416 4.12196C3.7524 4.13036 3.65496 4.13467 3.5616 4.13467C3.47688 4.13467 3.38784 4.13467 3.29448 4.13467L3.3072 4.12196Z" fill="#512B2B"/>
<path d="M9.85903 0.240234H11.6144L11.1183 2.66975H12.6956C13.5606 2.68679 14.205 2.86487 14.629 3.20399C15.0615 3.54311 15.1887 4.18775 15.0106 5.13743L14.1584 9.37319H12.3776L13.1917 5.32823C13.2764 4.90415 13.251 4.60319 13.1154 4.42511C12.9798 4.24703 12.6872 4.15799 12.2377 4.15799L10.8257 4.14527L9.78271 9.37319H8.02734L9.85903 0.240234Z" fill="#512B2B"/>
<path d="M16.901 2.67188H20.31C21.3105 2.68027 22.0356 2.96875 22.4851 3.53683C22.9346 4.10491 23.083 4.88083 22.9303 5.86459C22.871 6.31411 22.7395 6.75499 22.536 7.18747C22.3409 7.61995 22.0697 8.00995 21.7219 8.35771C21.2978 8.79859 20.8442 9.07843 20.3609 9.19723C19.8775 9.31603 19.3771 9.37531 18.8599 9.37531H17.3335L16.8501 11.7921H15.082L16.901 2.67188ZM18.3893 4.12196L17.626 7.93795C17.6769 7.94635 17.7278 7.95067 17.7787 7.95067C17.838 7.95067 17.8975 7.95067 17.9568 7.95067C18.7709 7.95907 19.4493 7.87867 19.992 7.70899C20.5346 7.53091 20.8994 6.91195 21.0859 5.85187C21.2385 4.96147 21.0859 4.44835 20.628 4.31275C20.1785 4.17715 19.6147 4.11356 18.9362 4.12196C18.8345 4.13036 18.737 4.13467 18.6437 4.13467C18.5589 4.13467 18.4699 4.13467 18.3765 4.13467L18.3893 4.12196Z" fill="#512B2B"/>
</svg>
