<svg width="24" height="24" viewBox="0 0 24 24" fill="none" xmlns="http://www.w3.org/2000/svg">
<g clip-path="url(#clip0)">
<path d="M14.3275 2.25C23.12 8.1175 20.2687 14.565 20.2687 14.565C20.2687 14.565 22.7663 17.3287 21.7625 19.75C21.7625 19.75 20.7262 18.0588 19.0062 18.0588C17.3437 18.0588 16.36 19.75 13.0038 19.75C5.53875 19.75 2 13.6325 2 13.6325C8.7275 17.9825 13.3237 14.9 13.3237 14.9C10.2863 13.1775 3.84375 4.92875 3.84375 4.92875C9.46 9.6175 11.8837 10.8488 11.8837 10.8488C10.4263 9.67875 6.365 3.945 6.365 3.945C9.615 7.16875 16.075 11.6637 16.075 11.6637C17.9275 6.69625 14.3275 2.25 14.3275 2.25Z" fill="#512B2B"/>
</g>
<defs>
<clipPath id="clip0">
<rect x="2" y="1" width="20" height="20" fill="white"/>
</clipPath>
</defs>
</svg>
