<svg width="34" height="20" viewBox="0 0 34 20" fill="none" xmlns="http://www.w3.org/2000/svg">
<g clip-path="url(#clip0)">
<mask id="mask0" mask-type="alpha" maskUnits="userSpaceOnUse" x="0" y="0" width="34" height="21">
<path d="M0 0.0673828H33.3333V20.0002H0V0.0673828Z" fill="white"/>
</mask>
<g mask="url(#mask0)">
<path fill-rule="evenodd" clip-rule="evenodd" d="M3.09362 0.0673828H30.2264C31.9434 0.0673828 33.3334 1.4638 33.3334 3.18876V13.5933C33.3334 15.3182 31.9434 16.7146 30.2264 16.7146H20.4962L21.8317 20.0002L15.9582 16.7146H3.10732C1.39024 16.7146 9.76261e-05 15.3182 9.76261e-05 13.5933V3.18876C-0.0134106 1.47747 1.37663 0.0673828 3.09362 0.0673828Z" fill="#512B2B"/>
</g>
<path fill-rule="evenodd" clip-rule="evenodd" d="M20.7965 8.99909C20.6077 9.88694 20.2705 10.5461 19.7713 10.9901C19.3801 11.3398 19.0159 11.4879 18.6787 11.4206C18.3549 11.3533 18.0851 11.0708 17.8827 10.5461C17.7209 10.1291 17.64 9.71203 17.64 9.32197C17.64 8.98558 17.6669 8.64929 17.7343 8.33983C17.8558 7.78828 18.0851 7.25016 18.4494 6.73896C18.8945 6.07969 19.3666 5.81068 19.8523 5.90488C20.176 5.97207 20.4459 6.2546 20.6482 6.7793C20.81 7.1963 20.891 7.61338 20.891 8.00353C20.9046 8.35334 20.864 8.68964 20.7965 8.99909ZM22.5098 5.27255C22.0241 4.42496 21.2957 3.91376 20.3515 3.71202C20.0951 3.65817 19.8523 3.63124 19.623 3.63124C18.3279 3.63124 17.2756 4.30392 16.4528 5.64919C15.7513 6.79272 15.4006 8.05739 15.4006 9.44301C15.4006 10.4789 15.6165 11.3668 16.0482 12.1067C16.5338 12.9543 17.2487 13.4654 18.2066 13.6672C18.4629 13.7211 18.7056 13.748 18.9349 13.748C20.2435 13.748 21.2957 13.0754 22.1051 11.7301C22.8066 10.573 23.1573 9.30846 23.1573 7.92284C23.1573 6.87342 22.9415 5.999 22.5098 5.27255ZM29.2548 8.99909C29.0659 9.88694 28.7286 10.5461 28.2296 10.9901C27.8383 11.3398 27.474 11.4879 27.1368 11.4206C26.8131 11.3533 26.5433 11.0708 26.3409 10.5461C26.179 10.1291 26.0982 9.71203 26.0982 9.32197C26.0982 8.98558 26.1251 8.64929 26.1925 8.33983C26.314 7.78828 26.5433 7.25016 26.9075 6.73896C27.3527 6.07969 27.8248 5.81068 28.3105 5.90488C28.6342 5.97207 28.904 6.2546 29.1063 6.7793C29.2683 7.1963 29.3491 7.61338 29.3491 8.00353C29.3491 8.35334 29.3222 8.68964 29.2548 8.99909ZM30.9545 5.27255C30.4689 4.42496 29.7539 3.91376 28.7961 3.71202C28.5398 3.65817 28.2969 3.63124 28.0676 3.63124C26.7727 3.63124 25.7204 4.30392 24.8975 5.64919C24.1961 6.79272 23.8453 8.05739 23.8453 9.44301C23.8453 10.4789 24.0611 11.3668 24.4928 12.1067C24.9784 12.9543 25.6934 13.4654 26.6512 13.6672C26.9075 13.7211 27.1504 13.748 27.3797 13.748C28.6882 13.748 29.7404 13.0754 30.5497 11.7301C31.2512 10.573 31.602 9.30846 31.602 7.92284C31.6154 6.87342 31.3862 5.999 30.9545 5.27255ZM1.96465 3.16039C2.15358 2.90479 2.43688 2.77023 2.81456 2.74339C3.50253 2.68954 3.89376 3.01241 3.98822 3.71202C4.40635 6.52371 4.86503 8.90489 5.35063 10.8556L8.30493 5.24562C8.57477 4.73442 8.91199 4.46531 9.31666 4.43847C9.91027 4.39812 10.2745 4.77477 10.4229 5.5685C10.7601 7.35778 11.1918 8.87796 11.7044 10.1695C12.0551 6.75238 12.6486 4.2905 13.4851 2.77023C13.6874 2.39359 13.9841 2.20518 14.3754 2.17834C14.6857 2.15141 14.969 2.24561 15.2253 2.44736C15.4816 2.64919 15.6165 2.90479 15.6434 3.21424C15.6569 3.45633 15.6165 3.65816 15.5086 3.85991C14.9824 4.82863 14.5507 6.45643 14.2 8.71647C13.8628 10.9094 13.7414 12.6179 13.8223 13.8422C13.8493 14.1785 13.7953 14.4744 13.6605 14.7301C13.4985 15.026 13.2558 15.1875 12.9455 15.2144C12.5947 15.2413 12.2305 15.0798 11.8797 14.7166C10.6252 13.4386 9.62697 11.5282 8.89844 8.98558C8.02162 10.7076 7.3741 11.9991 6.95597 12.8601C6.16007 14.3803 5.48555 15.1606 4.91895 15.2009C4.55473 15.2279 4.24443 14.9184 3.97467 14.2727C3.28669 12.5103 2.54471 9.10672 1.74881 4.06174C1.6949 3.71202 1.77582 3.40257 1.96465 3.16039Z" fill="#FFFFFE"/>
</g>
<defs>
<clipPath id="clip0">
<rect width="33.3333" height="20" fill="white"/>
</clipPath>
</defs>
</svg>
