<svg xmlns="http://www.w3.org/2000/svg" xmlns:xlink="http://www.w3.org/1999/xlink" xmlns:lucid="lucid" width="1014.03" height="137"><g transform="translate(-5389.079819270406 -17973.670905401414)" lucid:page-tab-id="0_0"><path d="M-10000 2000h45000v54500h-45000z" fill="#fafbfc"/><path d="M5391.58 17986.6a6 6 0 0 1 6-6h203.2a6 6 0 0 1 6 6v112.87a6 6 0 0 1-6 6h-203.2a6 6 0 0 1-6-6z" stroke="#4c2d2c" stroke-width="5" fill="#fff"/><use xlink:href="#a" transform="matrix(1,0,0,1,5403.579819357426,17992.590552967384) translate(7.203703703703695 55.65277777777778)"/><use xlink:href="#b" transform="matrix(1,0,0,1,5403.579819357426,17992.590552967384) translate(78.68518518518518 55.65277777777778)"/><use xlink:href="#c" transform="matrix(1,0,0,1,5403.579819357426,17992.590552967384) translate(97.2037037037037 55.65277777777778)"/><path d="M5610.77 18043l36.2-.63" stroke="#3a414a" stroke-width="3" fill="none"/><path d="M5610.84 18044.5l-1.57.03v-3l1.52-.03z" stroke="#3a414a" stroke-width=".05" fill="#3a414a"/><path d="M5655.14 18042.22l-12.78 7.86-.27-15.27z" stroke="#3a414a" stroke-width="3" fill="#3a414a"/><path d="M5660.58 17982.17a6 6 0 0 1 6-6h203.2a6 6 0 0 1 6 6v120a6 6 0 0 1-6 6h-203.2a6 6 0 0 1-6-6z" stroke="#4c2d2c" stroke-width="5" fill="#fff"/><use xlink:href="#d" transform="matrix(1,0,0,1,5672.581558090267,17988.170905449755) translate(45.50617283950618 58.27777777777778)"/><use xlink:href="#e" transform="matrix(1,0,0,1,5672.581558090267,17988.170905449755) translate(124.33333333333333 58.27777777777778)"/><path d="M5879.78 18042.17h36.2" stroke="#3a414a" stroke-width="3" fill="none"/><path d="M5879.8 18043.67h-1.52v-3h1.53z" stroke="#3a414a" stroke-width=".05" fill="#3a414a"/><path d="M5924.14 18042.17l-12.9 7.64v-15.26z" stroke="#3a414a" stroke-width="3" fill="#3a414a"/><path d="M5929.58 17982.17a6 6 0 0 1 6-6h203.2a6 6 0 0 1 6 6v120a6 6 0 0 1-6 6h-203.2a6 6 0 0 1-6-6z" stroke="#4c2d2c" stroke-width="5" fill="#fff"/><use xlink:href="#f" transform="matrix(1,0,0,1,5941.583296823107,17988.170905449755) translate(22.20370370370371 58.27777777777778)"/><use xlink:href="#g" transform="matrix(1,0,0,1,5941.583296823107,17988.170905449755) translate(106.83333333333333 58.27777777777778)"/><path d="M6148.78 18042.7l23.03.1" stroke="#3a414a" stroke-width="3" fill="none"/><path d="M6148.82 18041.2v3h-1.54v-3z" stroke="#3a414a" stroke-width=".05" fill="#3a414a"/><path d="M6179.97 18042.85l-12.95 7.57.08-15.27z" stroke="#3a414a" stroke-width="3" fill="#3a414a"/><path d="M6185.42 17986.94a6 6 0 0 1 6-6h203.2a6 6 0 0 1 6 6v112.88a6 6 0 0 1-6 6h-203.2a6 6 0 0 1-6-6z" stroke="#4c2d2c" stroke-width="5" fill="#fff"/><g><use xlink:href="#h" transform="matrix(1,0,0,1,6197.4191071676405,17992.94445609039) translate(56.55555555555555 55.65277777777778)"/></g><defs><path fill="#4c2d2c" d="M33 0v-248h34V0H33" id="i"/><path fill="#4c2d2c" d="M117-194c89-4 53 116 60 194h-32v-121c0-31-8-49-39-48C34-167 62-67 57 0H25l-1-190h30c1 10-1 24 2 32 11-22 29-35 61-36" id="j"/><path fill="#4c2d2c" d="M24-231v-30h32v30H24zM24 0v-190h32V0H24" id="k"/><path fill="#4c2d2c" d="M59-47c-2 24 18 29 38 22v24C64 9 27 4 27-40v-127H5v-23h24l9-43h21v43h35v23H59v120" id="l"/><path fill="#4c2d2c" d="M141-36C126-15 110 5 73 4 37 3 15-17 15-53c-1-64 63-63 125-63 3-35-9-54-41-54-24 1-41 7-42 31l-33-3c5-37 33-52 76-52 45 0 72 20 72 64v82c-1 20 7 32 28 27v20c-31 9-61-2-59-35zM48-53c0 20 12 33 32 33 41-3 63-29 60-74-43 2-92-5-92 41" id="m"/><path fill="#4c2d2c" d="M100-194c63 0 86 42 84 106H49c0 40 14 67 53 68 26 1 43-12 49-29l28 8c-11 28-37 45-77 45C44 4 14-33 15-96c1-61 26-98 85-98zm52 81c6-60-76-77-97-28-3 7-6 17-6 28h103" id="n"/><g id="a"><use transform="matrix(0.06172839506172839,0,0,0.06172839506172839,0,0)" xlink:href="#i"/><use transform="matrix(0.06172839506172839,0,0,0.06172839506172839,6.172839506172839,0)" xlink:href="#j"/><use transform="matrix(0.06172839506172839,0,0,0.06172839506172839,18.51851851851852,0)" xlink:href="#k"/><use transform="matrix(0.06172839506172839,0,0,0.06172839506172839,23.395061728395063,0)" xlink:href="#l"/><use transform="matrix(0.06172839506172839,0,0,0.06172839506172839,29.567901234567902,0)" xlink:href="#k"/><use transform="matrix(0.06172839506172839,0,0,0.06172839506172839,34.44444444444444,0)" xlink:href="#m"/><use transform="matrix(0.06172839506172839,0,0,0.06172839506172839,46.79012345679012,0)" xlink:href="#l"/><use transform="matrix(0.06172839506172839,0,0,0.06172839506172839,52.96296296296296,0)" xlink:href="#n"/></g><use transform="matrix(0.06172839506172839,0,0,0.06172839506172839,0,0)" xlink:href="#m" id="b"/><path fill="#4c2d2c" d="M30-248c87 1 191-15 191 75 0 78-77 80-158 76V0H30v-248zm33 125c57 0 124 11 124-50 0-59-68-47-124-48v98" id="o"/><path fill="#4c2d2c" d="M179-190L93 31C79 59 56 82 12 73V49c39 6 53-20 64-50L1-190h34L92-34l54-156h33" id="p"/><path fill="#4c2d2c" d="M210-169c-67 3-38 105-44 169h-31v-121c0-29-5-50-35-48C34-165 62-65 56 0H25l-1-190h30c1 10-1 24 2 32 10-44 99-50 107 0 11-21 27-35 58-36 85-2 47 119 55 194h-31v-121c0-29-5-49-35-48" id="q"/><g id="c"><use transform="matrix(0.06172839506172839,0,0,0.06172839506172839,0,0)" xlink:href="#o"/><use transform="matrix(0.06172839506172839,0,0,0.06172839506172839,14.814814814814813,0)" xlink:href="#m"/><use transform="matrix(0.06172839506172839,0,0,0.06172839506172839,27.160493827160494,0)" xlink:href="#p"/><use transform="matrix(0.06172839506172839,0,0,0.06172839506172839,38.27160493827161,0)" xlink:href="#q"/><use transform="matrix(0.06172839506172839,0,0,0.06172839506172839,56.72839506172839,0)" xlink:href="#n"/><use transform="matrix(0.06172839506172839,0,0,0.06172839506172839,69.07407407407408,0)" xlink:href="#j"/><use transform="matrix(0.06172839506172839,0,0,0.06172839506172839,81.41975308641976,0)" xlink:href="#l"/></g><path fill="#4c2d2c" d="M30-248c118-7 216 8 213 122C240-48 200 0 122 0H30v-248zM63-27c89 8 146-16 146-99s-60-101-146-95v194" id="r"/><path fill="#4c2d2c" d="M135-143c-3-34-86-38-87 0 15 53 115 12 119 90S17 21 10-45l28-5c4 36 97 45 98 0-10-56-113-15-118-90-4-57 82-63 122-42 12 7 21 19 24 35" id="s"/><path fill="#4c2d2c" d="M115-194c55 1 70 41 70 98S169 2 115 4C84 4 66-9 55-30l1 105H24l-1-265h31l2 30c10-21 28-34 59-34zm-8 174c40 0 45-34 45-75s-6-73-45-74c-42 0-51 32-51 76 0 43 10 73 51 73" id="t"/><path fill="#4c2d2c" d="M24 0v-261h32V0H24" id="u"/><g id="d"><use transform="matrix(0.06172839506172839,0,0,0.06172839506172839,0,0)" xlink:href="#r"/><use transform="matrix(0.06172839506172839,0,0,0.06172839506172839,15.987654320987653,0)" xlink:href="#k"/><use transform="matrix(0.06172839506172839,0,0,0.06172839506172839,20.864197530864196,0)" xlink:href="#s"/><use transform="matrix(0.06172839506172839,0,0,0.06172839506172839,31.975308641975307,0)" xlink:href="#t"/><use transform="matrix(0.06172839506172839,0,0,0.06172839506172839,44.32098765432099,0)" xlink:href="#u"/><use transform="matrix(0.06172839506172839,0,0,0.06172839506172839,49.19753086419753,0)" xlink:href="#m"/><use transform="matrix(0.06172839506172839,0,0,0.06172839506172839,61.54320987654321,0)" xlink:href="#p"/></g><path fill="#4c2d2c" d="M232-93c-1 65-40 97-104 97C67 4 28-28 28-90v-158h33c8 89-33 224 67 224 102 0 64-133 71-224h33v155" id="v"/><g id="e"><use transform="matrix(0.06172839506172839,0,0,0.06172839506172839,0,0)" xlink:href="#v"/><use transform="matrix(0.06172839506172839,0,0,0.06172839506172839,15.987654320987653,0)" xlink:href="#i"/></g><path fill="#4c2d2c" d="M137 0h-34L2-248h35l83 218 83-218h36" id="w"/><path fill="#4c2d2c" d="M85-194c31 0 48 13 60 33l-1-100h32l1 261h-30c-2-10 0-23-3-31C134-8 116 4 85 4 32 4 16-35 15-94c0-66 23-100 70-100zm9 24c-40 0-46 34-46 75 0 40 6 74 45 74 42 0 51-32 51-76 0-42-9-74-50-73" id="x"/><g id="f"><use transform="matrix(0.06172839506172839,0,0,0.06172839506172839,0,0)" xlink:href="#w"/><use transform="matrix(0.06172839506172839,0,0,0.06172839506172839,13.148148148148147,0)" xlink:href="#m"/><use transform="matrix(0.06172839506172839,0,0,0.06172839506172839,25.493827160493826,0)" xlink:href="#u"/><use transform="matrix(0.06172839506172839,0,0,0.06172839506172839,30.370370370370367,0)" xlink:href="#k"/><use transform="matrix(0.06172839506172839,0,0,0.06172839506172839,35.24691358024691,0)" xlink:href="#x"/><use transform="matrix(0.06172839506172839,0,0,0.06172839506172839,47.59259259259259,0)" xlink:href="#m"/><use transform="matrix(0.06172839506172839,0,0,0.06172839506172839,59.938271604938265,0)" xlink:href="#l"/><use transform="matrix(0.06172839506172839,0,0,0.06172839506172839,66.1111111111111,0)" xlink:href="#n"/></g><path fill="#4c2d2c" d="M185-189c-5-48-123-54-124 2 14 75 158 14 163 119 3 78-121 87-175 55-17-10-28-26-33-46l33-7c5 56 141 63 141-1 0-78-155-14-162-118-5-82 145-84 179-34 5 7 8 16 11 25" id="y"/><path fill="#4c2d2c" d="M84 4C-5 8 30-112 23-190h32v120c0 31 7 50 39 49 72-2 45-101 50-169h31l1 190h-30c-1-10 1-25-2-33-11 22-28 36-60 37" id="z"/><g id="g"><use transform="matrix(0.06172839506172839,0,0,0.06172839506172839,0,0)" xlink:href="#y"/><use transform="matrix(0.06172839506172839,0,0,0.06172839506172839,14.814814814814813,0)" xlink:href="#l"/><use transform="matrix(0.06172839506172839,0,0,0.06172839506172839,20.98765432098765,0)" xlink:href="#m"/><use transform="matrix(0.06172839506172839,0,0,0.06172839506172839,33.33333333333333,0)" xlink:href="#l"/><use transform="matrix(0.06172839506172839,0,0,0.06172839506172839,39.50617283950617,0)" xlink:href="#z"/><use transform="matrix(0.06172839506172839,0,0,0.06172839506172839,51.85185185185185,0)" xlink:href="#s"/></g><path fill="#4c2d2c" d="M212-179c-10-28-35-45-73-45-59 0-87 40-87 99 0 60 29 101 89 101 43 0 62-24 78-52l27 14C228-24 195 4 139 4 59 4 22-46 18-125c-6-104 99-153 187-111 19 9 31 26 39 46" id="A"/><path fill="#4c2d2c" d="M114-163C36-179 61-72 57 0H25l-1-190h30c1 12-1 29 2 39 6-27 23-49 58-41v29" id="B"/><g id="h"><use transform="matrix(0.06172839506172839,0,0,0.06172839506172839,0,0)" xlink:href="#A"/><use transform="matrix(0.06172839506172839,0,0,0.06172839506172839,15.987654320987653,0)" xlink:href="#m"/><use transform="matrix(0.06172839506172839,0,0,0.06172839506172839,28.333333333333332,0)" xlink:href="#t"/><use transform="matrix(0.06172839506172839,0,0,0.06172839506172839,40.67901234567901,0)" xlink:href="#l"/><use transform="matrix(0.06172839506172839,0,0,0.06172839506172839,46.851851851851855,0)" xlink:href="#z"/><use transform="matrix(0.06172839506172839,0,0,0.06172839506172839,59.19753086419753,0)" xlink:href="#B"/><use transform="matrix(0.06172839506172839,0,0,0.06172839506172839,66.54320987654322,0)" xlink:href="#n"/></g></defs></g></svg>