<?xml version="1.0" encoding="UTF-8"?>
<svg width="26px" height="19px" viewBox="0 0 26 19" version="1.1" xmlns="http://www.w3.org/2000/svg" lang="en-us" xml:lang="en-us" aria-labelledby="title" xmlns:xlink="http://www.w3.org/1999/xlink">
    <title id="title">Click to Pay logo</title>
    <defs>
        <polygon id="path-1" points="0 0 23.9869126 0 23.9869126 15.004939 0 15.004939"></polygon>
    </defs>
    <g id="Page-1" stroke="none" stroke-width="1" fill="none" fill-rule="evenodd">
        <g id="Click-to-Pay-Styles-for-UI-Display" transform="translate(-3790.000000, -659.000000)">
            <g id="button_dark_v3.1_178x32" transform="translate(3776.000000, 612.000000)">
                <g id="v4_mark_light_S_15px" transform="translate(14.500000, 7.500000)">
                    <g id="SRC-dark" transform="translate(0.000000, 40.000000)">
                        <g id="SRC_icon_black" transform="translate(0.000000, 1.500000)">
                            <mask id="mask-2" fill="white">
                                <use xlink:href="#path-1"></use>
                            </mask>
                            <g id="path-1"></g>
                            <path d="M23.7899586,7.02285366 L18.0428322,0.343189024 C17.9216368,0.145170732 17.7025103,0.0129146341 17.4523954,0.0129146341 C17.0709701,0.0129146341 16.7617287,0.320414634 16.7617287,0.699896341 C16.7617287,0.899835366 16.8477057,1.07983537 16.9848092,1.20541463 L22.191246,7.48346341 L17.0426483,13.6422439 L16.481269,13.6422439 L14.8184644,13.6422439 L19.6841195,8.01093293 C19.687246,8.00745732 19.6900966,8.00398171 19.693131,8.0005061 L19.6941425,8.00087195 C19.8296828,7.85270122 19.8900046,7.67956098 19.8867862,7.50889024 C19.8900046,7.33831098 19.8296828,7.16517073 19.6941425,7.017 L19.693131,7.01727439 C19.6900966,7.01379878 19.687246,7.01032317 19.6841195,7.00693902 L13.8739126,0.354073171 C13.8726253,0.352518293 13.8713379,0.350963415 13.8699586,0.349408537 C13.7496828,0.147914634 13.5286253,0.0129146341 13.2760276,0.0129146341 L9.19538391,0.0129146341 C8.81395862,0.0129146341 8.50471724,0.320414634 8.50471724,0.699896341 C8.50471724,0.81504878 8.52053333,0.93477439 8.5837977,1.0190122 L13.9915218,7.53440854 L9.3826023,13.034378 C9.3552,13.0616341 8.95805057,13.6245915 8.25975172,13.6245915 L2.75529195,13.6245915 C2.00669425,13.6245915 1.38591264,13.0435244 1.38591264,12.2716646 L1.38591264,2.73760976 C1.38591264,2.06571951 2.00669425,1.37562805 2.77221149,1.37562805 L6.19667126,1.37562805 C6.60034943,1.37562805 6.88733793,1.10142073 6.88733793,0.699896341 C6.88733793,0.298371951 6.60034943,-7.31707317e-05 6.19667126,-7.31707317e-05 L2.73864828,0.013554878 C1.10048736,0.013554878 -1.83908046e-05,1.35742683 -1.83908046e-05,2.72361585 L-1.83908046e-05,12.2716646 C-1.83908046e-05,13.7426707 1.3037977,14.995628 2.73864828,14.995628 L8.24154483,14.995628 C8.51906207,14.995628 8.77294713,14.9552012 9.00154483,14.8904451 C9.03418851,14.8812073 9.06637241,14.8714207 9.09791264,14.8612683 C9.85662529,14.6166951 10.3145563,14.1141951 10.4032,14.0077317 L15.5901425,7.99492683 C15.8354759,7.71806707 15.8681195,7.31654268 15.5941885,7.017 L15.593177,7.01727439 C15.5901425,7.01379878 15.587292,7.01032317 15.5842575,7.00693902 L10.6778667,1.37562805 L12.3814069,1.37562805 L12.9427862,1.37562805 L18.0701425,7.50898171 L12.6745563,13.9826707 C12.6728092,13.9845915 12.6761195,13.9901707 12.6837517,13.9988598 C12.6333609,14.0942561 12.6046713,14.2027317 12.6046713,14.3179756 C12.6046713,14.6973659 12.9139126,15.0049573 13.295246,15.0049573 L17.3758897,15.0049573 C17.6285793,15.0049573 17.8494529,14.8697744 17.9699126,14.668372 C17.9712,14.6668171 17.9724874,14.6652622 17.9737747,14.6637988 L23.7840736,8.01093293 C23.787108,8.00745732 23.7899586,8.00398171 23.7929931,8.0005061 L23.7940046,8.00087195 C24.0678437,7.7012378 24.035292,7.29971341 23.7899586,7.02285366" id="Fill-1" fill="#000000" fill-rule="nonzero" mask="url(#mask-2)"></path>
                        </g>
                        <rect id="Rectangle-export" x="0" y="0" width="24" height="18"></rect>
                    </g>
                </g>
            </g>
        </g>
    </g>
</svg>
