<svg width="160" height="242" viewBox="0 0 160 242" fill="none" xmlns="http://www.w3.org/2000/svg">
<rect width="160" height="242" rx="6" fill="white"/>
<path d="M13 18C13 16.8954 13.8954 16 15 16H146C147.105 16 148 16.8954 148 18V142C148 143.105 147.105 144 146 144H15C13.8954 144 13 143.105 13 142V18Z" fill="#F9F8F6"/>
<path d="M13 155C13 153.895 13.8954 153 15 153H146C147.105 153 148 153.895 148 155V175C148 176.105 147.105 177 146 177H15C13.8954 177 13 176.105 13 175V155Z" fill="#F9F8F6"/>
<path d="M31 160H27C26.45 160 26.005 160.45 26.005 161L26 169C26 169.55 26.445 170 26.995 170H33C33.55 170 34 169.55 34 169V163L31 160ZM27 169V161H30.5V163.5H33V169H27Z" fill="#512B2B"/>
<path d="M13 187C13 185.895 13.8954 185 15 185H146C147.105 185 148 185.895 148 187V206C148 207.105 147.105 208 146 208H15C13.8954 208 13 207.105 13 206V187Z" fill="#F9F8F6"/>
<path d="M72.832 101L71.092 98.048V101H70.396V96.8H71.14L72.892 99.764V96.8H73.576V101H72.832ZM74.9267 99.704C74.9747 99.92 75.0707 100.096 75.2147 100.232C75.3587 100.368 75.5467 100.436 75.7787 100.436C75.9147 100.436 76.0387 100.41 76.1507 100.358C76.2627 100.306 76.3867 100.222 76.5227 100.106L76.9487 100.598C76.8047 100.722 76.6327 100.828 76.4327 100.916C76.2367 101.004 76.0007 101.048 75.7247 101.048C75.4487 101.048 75.2107 101.002 75.0107 100.91C74.8147 100.814 74.6547 100.692 74.5307 100.544C74.4067 100.392 74.3147 100.224 74.2547 100.04C74.1987 99.852 74.1707 99.664 74.1707 99.476C74.1707 99.296 74.1987 99.114 74.2547 98.93C74.3107 98.746 74.3987 98.58 74.5187 98.432C74.6427 98.284 74.8027 98.164 74.9987 98.072C75.1947 97.976 75.4327 97.928 75.7127 97.928C75.9887 97.928 76.2187 97.974 76.4027 98.066C76.5867 98.158 76.7347 98.282 76.8467 98.438C76.9627 98.59 77.0447 98.768 77.0927 98.972C77.1407 99.176 77.1647 99.392 77.1647 99.62V99.704H74.9267ZM76.4327 99.194C76.4247 98.99 76.3527 98.826 76.2167 98.702C76.0807 98.574 75.9107 98.51 75.7067 98.51C75.6187 98.51 75.5327 98.524 75.4487 98.552C75.3647 98.576 75.2867 98.616 75.2147 98.672C75.1427 98.728 75.0827 98.8 75.0347 98.888C74.9867 98.972 74.9547 99.074 74.9387 99.194H76.4327ZM79.1976 101L78.6456 100.046L78.1236 101H77.3256L78.2676 99.398L77.4456 97.976H78.2496L78.6816 98.72L79.1076 97.976H79.8756L79.0536 99.368L80.0076 101H79.1976ZM82.2864 100.946C82.1824 100.982 82.0784 101.008 81.9744 101.024C81.8704 101.04 81.7724 101.048 81.6804 101.048C81.3604 101.048 81.1024 100.96 80.9064 100.784C80.7144 100.608 80.6184 100.34 80.6184 99.98V98.624H80.1564V97.976H80.6184V97.094L81.3804 96.998V97.976H82.1844V98.624H81.3804V99.836C81.3804 100.028 81.4244 100.174 81.5124 100.274C81.6004 100.37 81.7104 100.418 81.8424 100.418C81.8904 100.418 81.9364 100.412 81.9804 100.4C82.0244 100.388 82.0744 100.372 82.1304 100.352L82.2864 100.946Z" fill="white"/>
<rect x="26" y="114" width="87" height="4" fill="#EBE7E2"/>
<rect x="26" y="193" width="87" height="4" fill="#EBE7E2"/>
<rect x="26" y="124" width="66" height="4" fill="#EBE7E2"/>
<rect x="45" y="227" width="68" height="2" rx="1" fill="#E3E3E3"/>
<rect x="26" y="89" width="109" height="16" rx="2" fill="#72605E"/>
<rect x="26" y="68" width="65" height="16" fill="white"/>
<rect x="26" y="48" width="109" height="16" fill="white"/>
<rect x="96" y="68" width="39" height="16" fill="white"/>
<path d="M37.132 55.928L36.178 56.174L36.802 56.948L36.4 57.236L35.86 56.402L35.326 57.236L34.924 56.936L35.548 56.174L34.594 55.928L34.75 55.454L35.668 55.814L35.62 54.824H36.118L36.058 55.814L36.982 55.454L37.132 55.928ZM40.8527 55.928L39.8987 56.174L40.5227 56.948L40.1207 57.236L39.5807 56.402L39.0467 57.236L38.6447 56.936L39.2687 56.174L38.3147 55.928L38.4707 55.454L39.3887 55.814L39.3407 54.824H39.8387L39.7787 55.814L40.7027 55.454L40.8527 55.928ZM44.5734 55.928L43.6194 56.174L44.2434 56.948L43.8414 57.236L43.3014 56.402L42.7674 57.236L42.3654 56.936L42.9894 56.174L42.0354 55.928L42.1914 55.454L43.1094 55.814L43.0614 54.824H43.5594L43.4994 55.814L44.4234 55.454L44.5734 55.928ZM48.2941 55.928L47.3401 56.174L47.9641 56.948L47.5621 57.236L47.0221 56.402L46.4881 57.236L46.0861 56.936L46.7101 56.174L45.7561 55.928L45.9121 55.454L46.8301 55.814L46.7821 54.824H47.2801L47.2201 55.814L48.1441 55.454L48.2941 55.928ZM55.7355 55.928L54.7815 56.174L55.4055 56.948L55.0035 57.236L54.4635 56.402L53.9295 57.236L53.5275 56.936L54.1515 56.174L53.1975 55.928L53.3535 55.454L54.2715 55.814L54.2235 54.824H54.7215L54.6615 55.814L55.5855 55.454L55.7355 55.928ZM59.4562 55.928L58.5022 56.174L59.1262 56.948L58.7242 57.236L58.1842 56.402L57.6502 57.236L57.2482 56.936L57.8722 56.174L56.9182 55.928L57.0742 55.454L57.9922 55.814L57.9442 54.824H58.4422L58.3822 55.814L59.3062 55.454L59.4562 55.928ZM63.1769 55.928L62.2229 56.174L62.8469 56.948L62.4449 57.236L61.9049 56.402L61.3709 57.236L60.9689 56.936L61.5929 56.174L60.6389 55.928L60.7949 55.454L61.7129 55.814L61.6649 54.824H62.1629L62.1029 55.814L63.0269 55.454L63.1769 55.928ZM66.8976 55.928L65.9436 56.174L66.5676 56.948L66.1656 57.236L65.6256 56.402L65.0916 57.236L64.6896 56.936L65.3136 56.174L64.3596 55.928L64.5156 55.454L65.4336 55.814L65.3856 54.824H65.8836L65.8236 55.814L66.7476 55.454L66.8976 55.928ZM74.339 55.928L73.385 56.174L74.009 56.948L73.607 57.236L73.067 56.402L72.533 57.236L72.131 56.936L72.755 56.174L71.801 55.928L71.957 55.454L72.875 55.814L72.827 54.824H73.325L73.265 55.814L74.189 55.454L74.339 55.928ZM78.0597 55.928L77.1057 56.174L77.7297 56.948L77.3277 57.236L76.7877 56.402L76.2537 57.236L75.8517 56.936L76.4757 56.174L75.5217 55.928L75.6777 55.454L76.5957 55.814L76.5477 54.824H77.0457L76.9857 55.814L77.9097 55.454L78.0597 55.928ZM81.7804 55.928L80.8264 56.174L81.4504 56.948L81.0484 57.236L80.5084 56.402L79.9744 57.236L79.5724 56.936L80.1964 56.174L79.2424 55.928L79.3984 55.454L80.3164 55.814L80.2684 54.824H80.7664L80.7064 55.814L81.6304 55.454L81.7804 55.928ZM85.5011 55.928L84.5471 56.174L85.1711 56.948L84.7691 57.236L84.2291 56.402L83.6951 57.236L83.2931 56.936L83.9171 56.174L82.9631 55.928L83.1191 55.454L84.0371 55.814L83.9891 54.824H84.4871L84.4271 55.814L85.3511 55.454L85.5011 55.928ZM93.2125 59H90.4345V58.532H91.5685V55.412L90.4405 56.09V55.544L91.5925 54.83H92.0845V58.532H93.2125V59ZM96.6873 57.86C96.6873 58.196 96.5813 58.476 96.3693 58.7C96.1293 58.952 95.7873 59.078 95.3433 59.078C94.9473 59.078 94.6233 58.952 94.3713 58.7C94.1393 58.468 94.0213 58.17 94.0173 57.806H94.5393C94.5513 58.054 94.6233 58.246 94.7553 58.382C94.8993 58.538 95.0953 58.616 95.3433 58.616C95.6153 58.616 95.8233 58.536 95.9673 58.376C96.0993 58.232 96.1653 58.056 96.1653 57.848C96.1653 57.6 96.0853 57.41 95.9253 57.278C95.7653 57.142 95.5533 57.074 95.2893 57.074H95.0193V56.6H95.2893C95.5293 56.6 95.7193 56.538 95.8593 56.414C96.0033 56.286 96.0753 56.114 96.0753 55.898C96.0753 55.702 96.0093 55.54 95.8773 55.412C95.7413 55.276 95.5653 55.208 95.3493 55.208C95.1373 55.208 94.9613 55.264 94.8213 55.376C94.6613 55.508 94.5773 55.704 94.5693 55.964H94.0473C94.0513 55.568 94.1853 55.262 94.4493 55.046C94.6933 54.846 94.9973 54.746 95.3613 54.746C95.7293 54.746 96.0313 54.858 96.2673 55.082C96.4913 55.286 96.6033 55.558 96.6033 55.898C96.6033 56.094 96.5433 56.282 96.4233 56.462C96.3073 56.642 96.1633 56.768 95.9913 56.84C96.2073 56.912 96.3773 57.044 96.5013 57.236C96.6253 57.428 96.6873 57.636 96.6873 57.86ZM100.408 57.86C100.408 58.196 100.302 58.476 100.09 58.7C99.85 58.952 99.508 59.078 99.064 59.078C98.668 59.078 98.344 58.952 98.092 58.7C97.86 58.468 97.742 58.17 97.738 57.806H98.26C98.272 58.054 98.344 58.246 98.476 58.382C98.62 58.538 98.816 58.616 99.064 58.616C99.336 58.616 99.544 58.536 99.688 58.376C99.82 58.232 99.886 58.056 99.886 57.848C99.886 57.6 99.806 57.41 99.646 57.278C99.486 57.142 99.274 57.074 99.01 57.074H98.74V56.6H99.01C99.25 56.6 99.44 56.538 99.58 56.414C99.724 56.286 99.796 56.114 99.796 55.898C99.796 55.702 99.73 55.54 99.598 55.412C99.462 55.276 99.286 55.208 99.07 55.208C98.858 55.208 98.682 55.264 98.542 55.376C98.382 55.508 98.298 55.704 98.29 55.964H97.768C97.772 55.568 97.906 55.262 98.17 55.046C98.414 54.846 98.718 54.746 99.082 54.746C99.45 54.746 99.752 54.858 99.988 55.082C100.212 55.286 100.324 55.558 100.324 55.898C100.324 56.094 100.264 56.282 100.144 56.462C100.028 56.642 99.884 56.768 99.712 56.84C99.928 56.912 100.098 57.044 100.222 57.236C100.346 57.428 100.408 57.636 100.408 57.86ZM104.255 55.292L102.503 59H101.951L103.703 55.292H101.459V54.83H104.255V55.292Z" fill="black"/>
<path d="M106.468 76.644C106.452 77.056 106.296 77.4 106 77.676C105.708 77.948 105.354 78.084 104.938 78.084C104.518 78.084 104.152 77.932 103.84 77.628C103.624 77.416 103.482 77.17 103.414 76.89C103.35 76.61 103.318 76.272 103.318 75.876C103.318 75.48 103.35 75.142 103.414 74.862C103.482 74.582 103.624 74.336 103.84 74.124C104.152 73.82 104.518 73.668 104.938 73.668C105.354 73.668 105.708 73.8 106 74.064C106.292 74.328 106.446 74.666 106.462 75.078H105.904C105.892 74.838 105.81 74.638 105.658 74.478C105.474 74.274 105.234 74.172 104.938 74.172C104.666 74.172 104.426 74.28 104.218 74.496C104.11 74.608 104.028 74.752 103.972 74.928C103.92 75.104 103.89 75.252 103.882 75.372C103.874 75.492 103.87 75.66 103.87 75.876C103.87 76.092 103.874 76.26 103.882 76.38C103.89 76.5 103.92 76.648 103.972 76.824C104.028 77 104.11 77.144 104.218 77.256C104.426 77.472 104.666 77.58 104.938 77.58C105.21 77.58 105.44 77.492 105.628 77.316C105.816 77.14 105.912 76.916 105.916 76.644H106.468ZM110.219 73.746L108.899 78H108.263L106.943 73.746H107.513L108.593 77.382L109.655 73.746H110.219ZM113.909 76.644C113.893 77.056 113.737 77.4 113.441 77.676C113.149 77.948 112.795 78.084 112.379 78.084C111.959 78.084 111.593 77.932 111.281 77.628C111.065 77.416 110.923 77.17 110.855 76.89C110.791 76.61 110.759 76.272 110.759 75.876C110.759 75.48 110.791 75.142 110.855 74.862C110.923 74.582 111.065 74.336 111.281 74.124C111.593 73.82 111.959 73.668 112.379 73.668C112.795 73.668 113.149 73.8 113.441 74.064C113.733 74.328 113.887 74.666 113.903 75.078H113.345C113.333 74.838 113.251 74.638 113.099 74.478C112.915 74.274 112.675 74.172 112.379 74.172C112.107 74.172 111.867 74.28 111.659 74.496C111.551 74.608 111.469 74.752 111.413 74.928C111.361 75.104 111.331 75.252 111.323 75.372C111.315 75.492 111.311 75.66 111.311 75.876C111.311 76.092 111.315 76.26 111.323 76.38C111.331 76.5 111.361 76.648 111.413 76.824C111.469 77 111.551 77.144 111.659 77.256C111.867 77.472 112.107 77.58 112.379 77.58C112.651 77.58 112.881 77.492 113.069 77.316C113.257 77.14 113.353 76.916 113.357 76.644H113.909Z" fill="black"/>
<path d="M37.33 78H36.706L35.848 76.794L34.996 78H34.384L35.506 76.452L34.39 74.964H35.02L35.872 76.104L36.688 74.964H37.3L36.196 76.452L37.33 78ZM41.0507 78H40.4267L39.5687 76.794L38.7167 78H38.1047L39.2267 76.452L38.1107 74.964H38.7407L39.5927 76.104L40.4087 74.964H41.0207L39.9167 76.452L41.0507 78ZM44.9394 73.668L42.0714 78.078H41.6334L44.5014 73.668H44.9394ZM48.4921 78H47.8681L47.0101 76.794L46.1581 78H45.5461L46.6681 76.452L45.5521 74.964H46.1821L47.0341 76.104L47.8501 74.964H48.4621L47.3581 76.452L48.4921 78ZM52.2128 78H51.5888L50.7308 76.794L49.8788 78H49.2668L50.3888 76.452L49.2728 74.964H49.9028L50.7548 76.104L51.5708 74.964H52.1828L51.0788 76.452L52.2128 78Z" fill="black"/>
<path d="M66.396 99V94.8H68.028C68.244 94.8 68.436 94.83 68.604 94.89C68.772 94.95 68.914 95.034 69.03 95.142C69.146 95.25 69.234 95.382 69.294 95.538C69.354 95.69 69.384 95.86 69.384 96.048C69.384 96.424 69.266 96.724 69.03 96.948C68.794 97.168 68.46 97.278 68.028 97.278H67.194V99H66.396ZM67.89 96.618C68.13 96.618 68.3 96.564 68.4 96.456C68.504 96.344 68.556 96.198 68.556 96.018C68.556 95.842 68.506 95.706 68.406 95.61C68.306 95.51 68.13 95.46 67.878 95.46H67.194V96.618H67.89ZM71.2293 97.716H70.8213C70.4453 97.716 70.2573 97.844 70.2573 98.1C70.2573 98.168 70.2693 98.226 70.2933 98.274C70.3213 98.318 70.3553 98.356 70.3953 98.388C70.4393 98.416 70.4853 98.436 70.5333 98.448C70.5853 98.46 70.6353 98.466 70.6833 98.466C70.7713 98.466 70.8493 98.448 70.9173 98.412C70.9853 98.372 71.0413 98.322 71.0853 98.262C71.1333 98.198 71.1693 98.126 71.1933 98.046C71.2173 97.962 71.2293 97.876 71.2293 97.788V97.716ZM71.2713 99C71.2633 98.948 71.2553 98.892 71.2473 98.832C71.2393 98.772 71.2333 98.71 71.2293 98.646C71.1013 98.794 70.9673 98.9 70.8273 98.964C70.6913 99.024 70.5533 99.054 70.4133 99.054C70.3013 99.054 70.1893 99.036 70.0773 99C69.9693 98.964 69.8713 98.91 69.7833 98.838C69.6953 98.762 69.6233 98.668 69.5673 98.556C69.5153 98.44 69.4893 98.306 69.4893 98.154C69.4893 97.862 69.5973 97.636 69.8133 97.476C70.0293 97.316 70.3513 97.236 70.7793 97.236H71.2293V97.122C71.2293 96.93 71.1793 96.786 71.0793 96.69C70.9793 96.59 70.8333 96.54 70.6413 96.54C70.5093 96.54 70.3853 96.562 70.2693 96.606C70.1533 96.646 70.0353 96.7 69.9153 96.768L69.6873 96.252C69.8473 96.148 70.0153 96.068 70.1913 96.012C70.3713 95.952 70.5633 95.922 70.7673 95.922C70.9393 95.922 71.0993 95.946 71.2473 95.994C71.3953 96.042 71.5233 96.118 71.6313 96.222C71.7433 96.326 71.8313 96.464 71.8953 96.636C71.9593 96.808 71.9913 97.016 71.9913 97.26V99H71.2713ZM72.3851 99.612C72.6491 99.568 72.8471 99.488 72.9791 99.372C73.1151 99.26 73.2171 99.122 73.2851 98.958L73.3331 98.844L72.2351 95.976H73.0031L73.7051 97.866L74.3531 95.976H75.1211L74.0831 98.862C74.0111 99.062 73.9311 99.24 73.8431 99.396C73.7551 99.556 73.6531 99.694 73.5371 99.81C73.4211 99.93 73.2831 100.028 73.1231 100.104C72.9671 100.18 72.7851 100.236 72.5771 100.272L72.3851 99.612ZM77.7332 99V95.826L77.0552 96.102L76.8152 95.502L78.1292 94.8H78.5312V99H77.7332ZM81.4521 96.138C81.4521 95.938 81.3881 95.772 81.2601 95.64C81.1361 95.504 80.9581 95.436 80.7261 95.436C80.4901 95.436 80.3081 95.504 80.1801 95.64C80.0561 95.772 79.9941 95.938 79.9941 96.138C79.9941 96.338 80.0561 96.504 80.1801 96.636C80.3081 96.768 80.4901 96.834 80.7261 96.834C80.9581 96.834 81.1361 96.768 81.2601 96.636C81.3881 96.504 81.4521 96.338 81.4521 96.138ZM79.9161 99L80.9301 97.374C80.8701 97.398 80.7981 97.416 80.7141 97.428C80.6301 97.44 80.5541 97.446 80.4861 97.446C80.3221 97.446 80.1641 97.414 80.0121 97.35C79.8641 97.282 79.7321 97.19 79.6161 97.074C79.5001 96.958 79.4061 96.82 79.3341 96.66C79.2661 96.5 79.2321 96.324 79.2321 96.132C79.2321 95.952 79.2641 95.778 79.3281 95.61C79.3961 95.442 79.4941 95.296 79.6221 95.172C79.7501 95.044 79.9061 94.942 80.0901 94.866C80.2781 94.79 80.4901 94.752 80.7261 94.752C80.9621 94.752 81.1721 94.79 81.3561 94.866C81.5441 94.942 81.7001 95.044 81.8241 95.172C81.9521 95.296 82.0481 95.444 82.1121 95.616C82.1801 95.784 82.2141 95.96 82.2141 96.144C82.2141 96.26 82.1941 96.392 82.1541 96.54C82.1141 96.688 82.0301 96.87 81.9021 97.086L80.7261 99H79.9161ZM82.969 99L84.661 95.46H82.681V94.8H85.519V95.19L83.755 99H82.969ZM85.9769 99V98.64L87.4889 96.96C87.5729 96.868 87.6449 96.784 87.7049 96.708C87.7649 96.628 87.8149 96.554 87.8549 96.486C87.8949 96.418 87.9249 96.35 87.9449 96.282C87.9649 96.214 87.9749 96.142 87.9749 96.066C87.9749 95.99 87.9629 95.914 87.9389 95.838C87.9189 95.762 87.8849 95.694 87.8369 95.634C87.7889 95.574 87.7249 95.526 87.6449 95.49C87.5689 95.454 87.4749 95.436 87.3629 95.436C87.1709 95.436 87.0209 95.496 86.9129 95.616C86.8089 95.732 86.7469 95.9 86.7269 96.12H85.9829C85.9949 95.936 86.0289 95.762 86.0849 95.598C86.1449 95.43 86.2309 95.284 86.3429 95.16C86.4549 95.032 86.5949 94.932 86.7629 94.86C86.9309 94.788 87.1309 94.752 87.3629 94.752C87.5669 94.752 87.7569 94.782 87.9329 94.842C88.1089 94.902 88.2609 94.988 88.3889 95.1C88.5169 95.208 88.6169 95.34 88.6889 95.496C88.7649 95.652 88.8029 95.828 88.8029 96.024C88.8029 96.26 88.7529 96.47 88.6529 96.654C88.5529 96.838 88.4209 97.02 88.2569 97.2L87.2069 98.34H88.8149V99H85.9769ZM91.4295 99L90.3015 97.638V99H89.5395V94.692H90.3015V97.158L91.2255 95.976H92.1015L90.9855 97.362L92.3175 99H91.4295ZM92.6732 99V95.976H93.3932C93.4092 96.064 93.4192 96.154 93.4232 96.246C93.4312 96.338 93.4372 96.424 93.4412 96.504C93.5812 96.292 93.7372 96.144 93.9092 96.06C94.0852 95.972 94.2472 95.928 94.3952 95.928C94.4392 95.928 94.4952 95.932 94.5632 95.94C94.6352 95.944 94.7012 95.952 94.7612 95.964L94.6172 96.726C94.5532 96.71 94.4972 96.7 94.4492 96.696C94.4012 96.692 94.3592 96.69 94.3232 96.69C94.1872 96.69 94.0652 96.712 93.9572 96.756C93.8492 96.8 93.7552 96.874 93.6752 96.978C93.5992 97.078 93.5392 97.212 93.4952 97.38C93.4552 97.548 93.4352 97.754 93.4352 97.998V99H92.6732Z" fill="white"/>
<path d="M47.526 37.551C47.418 37.815 47.28 38.043 47.112 38.235C46.95 38.427 46.767 38.586 46.563 38.712C46.359 38.832 46.137 38.922 45.897 38.982C45.657 39.042 45.408 39.072 45.15 39.072C44.772 39.072 44.406 39.009 44.052 38.883C43.704 38.751 43.395 38.553 43.125 38.289C42.861 38.019 42.648 37.683 42.486 37.281C42.33 36.879 42.252 36.405 42.252 35.859C42.252 35.313 42.33 34.839 42.486 34.437C42.648 34.029 42.861 33.693 43.125 33.429C43.395 33.159 43.704 32.958 44.052 32.826C44.4 32.694 44.766 32.628 45.15 32.628C45.6 32.628 46.023 32.724 46.419 32.916C46.815 33.102 47.133 33.405 47.373 33.825L46.392 34.365C46.254 34.149 46.083 33.978 45.879 33.852C45.681 33.72 45.435 33.654 45.141 33.654C44.907 33.654 44.688 33.702 44.484 33.798C44.286 33.888 44.112 34.026 43.962 34.212C43.818 34.392 43.704 34.62 43.62 34.896C43.536 35.166 43.494 35.484 43.494 35.85C43.494 36.228 43.536 36.555 43.62 36.831C43.71 37.107 43.83 37.335 43.98 37.515C44.13 37.695 44.304 37.83 44.502 37.92C44.706 38.004 44.919 38.046 45.141 38.046C45.321 38.046 45.483 38.022 45.627 37.974C45.771 37.92 45.9 37.848 46.014 37.758C46.134 37.668 46.236 37.566 46.32 37.452C46.404 37.338 46.479 37.218 46.545 37.092L47.526 37.551ZM50.714 37.074H50.102C49.538 37.074 49.256 37.266 49.256 37.65C49.256 37.752 49.274 37.839 49.31 37.911C49.352 37.977 49.403 38.034 49.463 38.082C49.529 38.124 49.598 38.154 49.67 38.172C49.748 38.19 49.823 38.199 49.895 38.199C50.027 38.199 50.144 38.172 50.246 38.118C50.348 38.058 50.432 37.983 50.498 37.893C50.57 37.797 50.624 37.689 50.66 37.569C50.696 37.443 50.714 37.314 50.714 37.182V37.074ZM50.777 39C50.765 38.922 50.753 38.838 50.741 38.748C50.729 38.658 50.72 38.565 50.714 38.469C50.522 38.691 50.321 38.85 50.111 38.946C49.907 39.036 49.7 39.081 49.49 39.081C49.322 39.081 49.154 39.054 48.986 39C48.824 38.946 48.677 38.865 48.545 38.757C48.413 38.643 48.305 38.502 48.221 38.334C48.143 38.16 48.104 37.959 48.104 37.731C48.104 37.293 48.266 36.954 48.59 36.714C48.914 36.474 49.397 36.354 50.039 36.354H50.714V36.183C50.714 35.895 50.639 35.679 50.489 35.535C50.339 35.385 50.12 35.31 49.832 35.31C49.634 35.31 49.448 35.343 49.274 35.409C49.1 35.469 48.923 35.55 48.743 35.652L48.401 34.878C48.641 34.722 48.893 34.602 49.157 34.518C49.427 34.428 49.715 34.383 50.021 34.383C50.279 34.383 50.519 34.419 50.741 34.491C50.963 34.563 51.155 34.677 51.317 34.833C51.485 34.989 51.617 35.196 51.713 35.454C51.809 35.712 51.857 36.024 51.857 36.39V39H50.777ZM52.9004 39V34.464H53.9804C54.0044 34.596 54.0194 34.731 54.0254 34.869C54.0374 35.007 54.0464 35.136 54.0524 35.256C54.2624 34.938 54.4964 34.716 54.7544 34.59C55.0184 34.458 55.2614 34.392 55.4834 34.392C55.5494 34.392 55.6334 34.398 55.7354 34.41C55.8434 34.416 55.9424 34.428 56.0324 34.446L55.8164 35.589C55.7204 35.565 55.6364 35.55 55.5644 35.544C55.4924 35.538 55.4294 35.535 55.3754 35.535C55.1714 35.535 54.9884 35.568 54.8264 35.634C54.6644 35.7 54.5234 35.811 54.4034 35.967C54.2894 36.117 54.1994 36.318 54.1334 36.57C54.0734 36.822 54.0434 37.131 54.0434 37.497V39H52.9004ZM58.4785 38.154C58.8625 38.154 59.1475 38.022 59.3335 37.758C59.5255 37.488 59.6215 37.146 59.6215 36.732C59.6215 36.318 59.5255 35.979 59.3335 35.715C59.1475 35.445 58.8625 35.31 58.4785 35.31C58.0945 35.31 57.8125 35.445 57.6325 35.715C57.4585 35.979 57.3715 36.318 57.3715 36.732C57.3715 37.146 57.4585 37.488 57.6325 37.758C57.8125 38.022 58.0945 38.154 58.4785 38.154ZM59.6035 39C59.5915 38.91 59.5795 38.811 59.5675 38.703C59.5555 38.595 59.5465 38.487 59.5405 38.379C59.3245 38.631 59.1055 38.811 58.8835 38.919C58.6615 39.021 58.4245 39.072 58.1725 39.072C57.8665 39.072 57.5905 39.009 57.3445 38.883C57.0985 38.757 56.8885 38.586 56.7145 38.37C56.5465 38.154 56.4175 37.905 56.3275 37.623C56.2375 37.341 56.1925 37.044 56.1925 36.732C56.1925 36.42 56.2375 36.123 56.3275 35.841C56.4175 35.559 56.5465 35.31 56.7145 35.094C56.8885 34.878 57.0955 34.707 57.3355 34.581C57.5815 34.455 57.8575 34.392 58.1635 34.392C58.4275 34.392 58.6765 34.446 58.9105 34.554C59.1445 34.656 59.3545 34.827 59.5405 35.067V32.538H60.6835V39H59.6035Z" fill="#512B2B"/>
<path d="M40.528 168V162.4H41.592V168H40.528ZM45.2852 168V165.544C45.2852 165.288 45.2159 165.088 45.0772 164.944C44.9385 164.8 44.7572 164.728 44.5332 164.728C44.2399 164.728 44.0105 164.859 43.8452 165.12C43.6852 165.381 43.6052 165.749 43.6052 166.224V168H42.5892V163.968H43.5652C43.5865 164.075 43.5999 164.179 43.6052 164.28C43.6105 164.381 43.6159 164.475 43.6212 164.56C43.7972 164.325 43.9999 164.157 44.2292 164.056C44.4585 163.949 44.7065 163.896 44.9732 163.896C45.3785 163.896 45.7012 164.027 45.9412 164.288C46.1812 164.544 46.3012 164.907 46.3012 165.376V168H45.2852ZM48.1283 168L46.7123 163.968H47.7523L48.6003 166.656L49.4403 163.968H50.4803L49.0563 168H48.1283ZM52.8831 168.064C52.5364 168.064 52.2324 168.008 51.9711 167.896C51.7151 167.784 51.4991 167.632 51.3231 167.44C51.1524 167.248 51.0217 167.027 50.9311 166.776C50.8457 166.525 50.8031 166.261 50.8031 165.984C50.8031 165.707 50.8457 165.443 50.9311 165.192C51.0217 164.941 51.1524 164.72 51.3231 164.528C51.4991 164.336 51.7151 164.184 51.9711 164.072C52.2324 163.96 52.5364 163.904 52.8831 163.904C53.2244 163.904 53.5257 163.96 53.7871 164.072C54.0484 164.184 54.2644 164.336 54.4351 164.528C54.6111 164.72 54.7417 164.941 54.8271 165.192C54.9177 165.443 54.9631 165.707 54.9631 165.984C54.9631 166.261 54.9177 166.525 54.8271 166.776C54.7417 167.027 54.6111 167.248 54.4351 167.44C54.2644 167.632 54.0484 167.784 53.7871 167.896C53.5257 168.008 53.2244 168.064 52.8831 168.064ZM52.8831 167.248C53.2351 167.248 53.4937 167.131 53.6591 166.896C53.8297 166.656 53.9151 166.352 53.9151 165.984C53.9151 165.616 53.8297 165.315 53.6591 165.08C53.4937 164.84 53.2351 164.72 52.8831 164.72C52.5311 164.72 52.2697 164.84 52.0991 165.08C51.9337 165.315 51.8511 165.616 51.8511 165.984C51.8511 166.352 51.9337 166.656 52.0991 166.896C52.2697 167.131 52.5311 167.248 52.8831 167.248ZM55.6426 168V163.968H56.6586V168H55.6426ZM56.7466 162.712C56.7466 162.877 56.6879 163.019 56.5706 163.136C56.4532 163.248 56.3119 163.304 56.1466 163.304C55.9812 163.304 55.8399 163.248 55.7226 163.136C55.6106 163.019 55.5546 162.877 55.5546 162.712C55.5546 162.547 55.6106 162.405 55.7226 162.288C55.8399 162.171 55.9812 162.112 56.1466 162.112C56.3119 162.112 56.4532 162.171 56.5706 162.288C56.6879 162.405 56.7466 162.547 56.7466 162.712ZM61.2301 167.104C61.0435 167.44 60.7901 167.685 60.4701 167.84C60.1555 167.989 59.8141 168.064 59.4461 168.064C59.1101 168.064 58.8115 168.011 58.5501 167.904C58.2888 167.792 58.0675 167.643 57.8861 167.456C57.7101 167.264 57.5741 167.043 57.4781 166.792C57.3875 166.536 57.3421 166.267 57.3421 165.984C57.3421 165.701 57.3875 165.435 57.4781 165.184C57.5741 164.928 57.7101 164.707 57.8861 164.52C58.0621 164.328 58.2781 164.179 58.5341 164.072C58.7955 163.96 59.0941 163.904 59.4301 163.904C59.7928 163.904 60.1288 163.981 60.4381 164.136C60.7528 164.285 61.0035 164.531 61.1901 164.872L60.3981 165.312C60.3021 165.141 60.1795 165 60.0301 164.888C59.8808 164.776 59.6941 164.72 59.4701 164.72C59.1021 164.72 58.8301 164.84 58.6541 165.08C58.4781 165.32 58.3901 165.624 58.3901 165.992C58.3901 166.173 58.4115 166.341 58.4541 166.496C58.4968 166.645 58.5635 166.776 58.6541 166.888C58.7448 167 58.8595 167.088 58.9981 167.152C59.1368 167.216 59.2995 167.248 59.4861 167.248C59.6995 167.248 59.8861 167.2 60.0461 167.104C60.2061 167.003 60.3395 166.859 60.4461 166.672L61.2301 167.104ZM62.7017 166.272C62.7657 166.56 62.8937 166.795 63.0857 166.976C63.2777 167.157 63.5284 167.248 63.8377 167.248C64.019 167.248 64.1844 167.213 64.3337 167.144C64.483 167.075 64.6484 166.963 64.8297 166.808L65.3977 167.464C65.2057 167.629 64.9764 167.771 64.7097 167.888C64.4484 168.005 64.1337 168.064 63.7657 168.064C63.3977 168.064 63.0804 168.003 62.8137 167.88C62.5524 167.752 62.339 167.589 62.1737 167.392C62.0084 167.189 61.8857 166.965 61.8057 166.72C61.731 166.469 61.6937 166.219 61.6937 165.968C61.6937 165.728 61.731 165.485 61.8057 165.24C61.8804 164.995 61.9977 164.773 62.1577 164.576C62.323 164.379 62.5364 164.219 62.7977 164.096C63.059 163.968 63.3764 163.904 63.7497 163.904C64.1177 163.904 64.4244 163.965 64.6697 164.088C64.915 164.211 65.1124 164.376 65.2617 164.584C65.4164 164.787 65.5257 165.024 65.5897 165.296C65.6537 165.568 65.6857 165.856 65.6857 166.16V166.272H62.7017ZM64.7097 165.592C64.699 165.32 64.603 165.101 64.4217 164.936C64.2404 164.765 64.0137 164.68 63.7417 164.68C63.6244 164.68 63.5097 164.699 63.3977 164.736C63.2857 164.768 63.1817 164.821 63.0857 164.896C62.9897 164.971 62.9097 165.067 62.8457 165.184C62.7817 165.296 62.739 165.432 62.7177 165.592H64.7097Z" fill="#512B2B"/>
<path fill-rule="evenodd" clip-rule="evenodd" d="M36 32H28C27.445 32 27.005 32.445 27.005 33L27 39C27 39.555 27.445 40 28 40H36C36.555 40 37 39.555 37 39V33C37 32.445 36.555 32 36 32ZM35.5 39H28.5C28.225 39 28 38.775 28 38.5V36H36V38.5C36 38.775 35.775 39 35.5 39ZM28 34H36V33H28V34Z" fill="#512B2B"/>
</svg>
