<svg width="160" height="242" viewBox="0 0 160 242" fill="none" xmlns="http://www.w3.org/2000/svg">
<rect width="160" height="242" rx="6" fill="white"/>
<path d="M13 18C13 16.8954 13.8954 16 15 16H146C147.105 16 148 16.8954 148 18V142C148 143.105 147.105 144 146 144H15C13.8954 144 13 143.105 13 142V18Z" fill="#F9F8F6"/>
<path d="M13 155C13 153.895 13.8954 153 15 153H146C147.105 153 148 153.895 148 155V175C148 176.105 147.105 177 146 177H15C13.8954 177 13 176.105 13 175V155Z" fill="#F9F8F6"/>
<path d="M13 187C13 185.895 13.8954 185 15 185H146C147.105 185 148 185.895 148 187V206C148 207.105 147.105 208 146 208H15C13.8954 208 13 207.105 13 206V187Z" fill="#F9F8F6"/>
<rect x="26" y="43" width="106" height="16" fill="white"/>
<rect x="26" y="67" width="106" height="16" fill="white"/>
<rect x="26" y="91" width="106" height="16" rx="2" fill="#72605E"/>
<path d="M72.832 101L71.092 98.048V101H70.396V96.8H71.14L72.892 99.764V96.8H73.576V101H72.832ZM74.9267 99.704C74.9747 99.92 75.0707 100.096 75.2147 100.232C75.3587 100.368 75.5467 100.436 75.7787 100.436C75.9147 100.436 76.0387 100.41 76.1507 100.358C76.2627 100.306 76.3867 100.222 76.5227 100.106L76.9487 100.598C76.8047 100.722 76.6327 100.828 76.4327 100.916C76.2367 101.004 76.0007 101.048 75.7247 101.048C75.4487 101.048 75.2107 101.002 75.0107 100.91C74.8147 100.814 74.6547 100.692 74.5307 100.544C74.4067 100.392 74.3147 100.224 74.2547 100.04C74.1987 99.852 74.1707 99.664 74.1707 99.476C74.1707 99.296 74.1987 99.114 74.2547 98.93C74.3107 98.746 74.3987 98.58 74.5187 98.432C74.6427 98.284 74.8027 98.164 74.9987 98.072C75.1947 97.976 75.4327 97.928 75.7127 97.928C75.9887 97.928 76.2187 97.974 76.4027 98.066C76.5867 98.158 76.7347 98.282 76.8467 98.438C76.9627 98.59 77.0447 98.768 77.0927 98.972C77.1407 99.176 77.1647 99.392 77.1647 99.62V99.704H74.9267ZM76.4327 99.194C76.4247 98.99 76.3527 98.826 76.2167 98.702C76.0807 98.574 75.9107 98.51 75.7067 98.51C75.6187 98.51 75.5327 98.524 75.4487 98.552C75.3647 98.576 75.2867 98.616 75.2147 98.672C75.1427 98.728 75.0827 98.8 75.0347 98.888C74.9867 98.972 74.9547 99.074 74.9387 99.194H76.4327ZM79.1976 101L78.6456 100.046L78.1236 101H77.3256L78.2676 99.398L77.4456 97.976H78.2496L78.6816 98.72L79.1076 97.976H79.8756L79.0536 99.368L80.0076 101H79.1976ZM82.2864 100.946C82.1824 100.982 82.0784 101.008 81.9744 101.024C81.8704 101.04 81.7724 101.048 81.6804 101.048C81.3604 101.048 81.1024 100.96 80.9064 100.784C80.7144 100.608 80.6184 100.34 80.6184 99.98V98.624H80.1564V97.976H80.6184V97.094L81.3804 96.998V97.976H82.1844V98.624H81.3804V99.836C81.3804 100.028 81.4244 100.174 81.5124 100.274C81.6004 100.37 81.7104 100.418 81.8424 100.418C81.8904 100.418 81.9364 100.412 81.9804 100.4C82.0244 100.388 82.0744 100.372 82.1304 100.352L82.2864 100.946Z" fill="white"/>
<rect x="26" y="114" width="87" height="4" fill="#EBE7E2"/>
<rect x="26" y="164" width="87" height="4" fill="#EBE7E2"/>
<rect x="26" y="193" width="87" height="4" fill="#EBE7E2"/>
<rect x="26" y="124" width="66" height="4" fill="#EBE7E2"/>
<path d="M34.132 50.928L33.178 51.174L33.802 51.948L33.4 52.236L32.86 51.402L32.326 52.236L31.924 51.936L32.548 51.174L31.594 50.928L31.75 50.454L32.668 50.814L32.62 49.824H33.118L33.058 50.814L33.982 50.454L34.132 50.928ZM37.8527 50.928L36.8987 51.174L37.5227 51.948L37.1207 52.236L36.5807 51.402L36.0467 52.236L35.6447 51.936L36.2687 51.174L35.3147 50.928L35.4707 50.454L36.3887 50.814L36.3407 49.824H36.8387L36.7787 50.814L37.7027 50.454L37.8527 50.928ZM41.5734 50.928L40.6194 51.174L41.2434 51.948L40.8414 52.236L40.3014 51.402L39.7674 52.236L39.3654 51.936L39.9894 51.174L39.0354 50.928L39.1914 50.454L40.1094 50.814L40.0614 49.824H40.5594L40.4994 50.814L41.4234 50.454L41.5734 50.928ZM45.2941 50.928L44.3401 51.174L44.9641 51.948L44.5621 52.236L44.0221 51.402L43.4881 52.236L43.0861 51.936L43.7101 51.174L42.7561 50.928L42.9121 50.454L43.8301 50.814L43.7821 49.824H44.2801L44.2201 50.814L45.1441 50.454L45.2941 50.928ZM49.0148 50.928L48.0608 51.174L48.6848 51.948L48.2828 52.236L47.7428 51.402L47.2088 52.236L46.8068 51.936L47.4308 51.174L46.4768 50.928L46.6328 50.454L47.5508 50.814L47.5028 49.824H48.0008L47.9408 50.814L48.8648 50.454L49.0148 50.928ZM56.4562 50.928L55.5022 51.174L56.1262 51.948L55.7242 52.236L55.1842 51.402L54.6502 52.236L54.2482 51.936L54.8722 51.174L53.9182 50.928L54.0742 50.454L54.9922 50.814L54.9442 49.824H55.4422L55.3822 50.814L56.3062 50.454L56.4562 50.928ZM60.1769 50.928L59.2229 51.174L59.8469 51.948L59.4449 52.236L58.9049 51.402L58.3709 52.236L57.9689 51.936L58.5929 51.174L57.6389 50.928L57.7949 50.454L58.7129 50.814L58.6649 49.824H59.1629L59.1029 50.814L60.0269 50.454L60.1769 50.928ZM63.8976 50.928L62.9436 51.174L63.5676 51.948L63.1656 52.236L62.6256 51.402L62.0916 52.236L61.6896 51.936L62.3136 51.174L61.3596 50.928L61.5156 50.454L62.4336 50.814L62.3856 49.824H62.8836L62.8236 50.814L63.7476 50.454L63.8976 50.928ZM67.6183 50.928L66.6643 51.174L67.2883 51.948L66.8863 52.236L66.3463 51.402L65.8123 52.236L65.4103 51.936L66.0343 51.174L65.0803 50.928L65.2363 50.454L66.1543 50.814L66.1063 49.824H66.6043L66.5443 50.814L67.4683 50.454L67.6183 50.928ZM71.339 50.928L70.385 51.174L71.009 51.948L70.607 52.236L70.067 51.402L69.533 52.236L69.131 51.936L69.755 51.174L68.801 50.928L68.957 50.454L69.875 50.814L69.827 49.824H70.325L70.265 50.814L71.189 50.454L71.339 50.928ZM75.0597 50.928L74.1057 51.174L74.7297 51.948L74.3277 52.236L73.7877 51.402L73.2537 52.236L72.8517 51.936L73.4757 51.174L72.5217 50.928L72.6777 50.454L73.5957 50.814L73.5477 49.824H74.0457L73.9857 50.814L74.9097 50.454L75.0597 50.928ZM78.7804 50.928L77.8264 51.174L78.4504 51.948L78.0484 52.236L77.5084 51.402L76.9744 52.236L76.5724 51.936L77.1964 51.174L76.2424 50.928L76.3984 50.454L77.3164 50.814L77.2684 49.824H77.7664L77.7064 50.814L78.6304 50.454L78.7804 50.928ZM82.5011 50.928L81.5471 51.174L82.1711 51.948L81.7691 52.236L81.2291 51.402L80.6951 52.236L80.2931 51.936L80.9171 51.174L79.9631 50.928L80.1191 50.454L81.0371 50.814L80.9891 49.824H81.4871L81.4271 50.814L82.3511 50.454L82.5011 50.928ZM86.2218 50.928L85.2678 51.174L85.8918 51.948L85.4898 52.236L84.9498 51.402L84.4158 52.236L84.0138 51.936L84.6378 51.174L83.6838 50.928L83.8398 50.454L84.7578 50.814L84.7098 49.824H85.2078L85.1478 50.814L86.0718 50.454L86.2218 50.928ZM89.9425 50.928L88.9885 51.174L89.6125 51.948L89.2105 52.236L88.6705 51.402L88.1365 52.236L87.7345 51.936L88.3585 51.174L87.4045 50.928L87.5605 50.454L88.4785 50.814L88.4305 49.824H88.9285L88.8685 50.814L89.7925 50.454L89.9425 50.928ZM93.6633 50.928L92.7093 51.174L93.3333 51.948L92.9313 52.236L92.3913 51.402L91.8573 52.236L91.4553 51.936L92.0793 51.174L91.1253 50.928L91.2812 50.454L92.1993 50.814L92.1513 49.824H92.6493L92.5893 50.814L93.5133 50.454L93.6633 50.928ZM97.384 50.928L96.43 51.174L97.054 51.948L96.652 52.236L96.112 51.402L95.578 52.236L95.176 51.936L95.8 51.174L94.846 50.928L95.002 50.454L95.92 50.814L95.872 49.824H96.37L96.31 50.814L97.234 50.454L97.384 50.928ZM101.105 50.928L100.151 51.174L100.775 51.948L100.373 52.236L99.8327 51.402L99.2987 52.236L98.8967 51.936L99.5207 51.174L98.5667 50.928L98.7227 50.454L99.6407 50.814L99.5927 49.824H100.091L100.031 50.814L100.955 50.454L101.105 50.928Z" fill="black"/>
<path d="M34.33 77H33.706L32.848 75.794L31.996 77H31.384L32.506 75.452L31.39 73.964H32.02L32.872 75.104L33.688 73.964H34.3L33.196 75.452L34.33 77ZM38.0507 77H37.4267L36.5687 75.794L35.7167 77H35.1047L36.2267 75.452L35.1107 73.964H35.7407L36.5927 75.104L37.4087 73.964H38.0207L36.9167 75.452L38.0507 77ZM45.4921 77H44.8681L44.0101 75.794L43.1581 77H42.5461L43.6681 75.452L42.5521 73.964H43.1821L44.0341 75.104L44.8501 73.964H45.4621L44.3581 75.452L45.4921 77ZM49.2128 77H48.5888L47.7308 75.794L46.8788 77H46.2668L47.3888 75.452L46.2728 73.964H46.9028L47.7548 75.104L48.5708 73.964H49.1828L48.0788 75.452L49.2128 77ZM52.9335 77H52.3095L51.4515 75.794L50.5995 77H49.9875L51.1095 75.452L49.9935 73.964H50.6235L51.4755 75.104L52.2915 73.964H52.9035L51.7995 75.452L52.9335 77ZM56.6542 77H56.0302L55.1722 75.794L54.3202 77H53.7082L54.8302 75.452L53.7142 73.964H54.3442L55.1962 75.104L56.0122 73.964H56.6242L55.5202 75.452L56.6542 77ZM64.0956 77H63.4716L62.6136 75.794L61.7616 77H61.1496L62.2716 75.452L61.1556 73.964H61.7856L62.6376 75.104L63.4536 73.964H64.0656L62.9616 75.452L64.0956 77ZM67.8163 77H67.1923L66.3343 75.794L65.4823 77H64.8703L65.9923 75.452L64.8763 73.964H65.5063L66.3583 75.104L67.1743 73.964H67.7863L66.6823 75.452L67.8163 77ZM71.537 77H70.913L70.055 75.794L69.203 77H68.591L69.713 75.452L68.597 73.964H69.227L70.079 75.104L70.895 73.964H71.507L70.403 75.452L71.537 77ZM75.2577 77H74.6337L73.7757 75.794L72.9237 77H72.3117L73.4337 75.452L72.3177 73.964H72.9477L73.7997 75.104L74.6157 73.964H75.2277L74.1237 75.452L75.2577 77ZM78.9784 77H78.3544L77.4964 75.794L76.6444 77H76.0324L77.1544 75.452L76.0384 73.964H76.6684L77.5204 75.104L78.3364 73.964H78.9484L77.8444 75.452L78.9784 77Z" fill="black"/>
<path d="M27.773 36V33.318L26.027 29.7H27.26L28.385 32.265L29.492 29.7H30.707L28.97 33.318V36H27.773ZM32.7415 36.072C32.3515 36.072 32.0095 36.009 31.7155 35.883C31.4275 35.757 31.1845 35.586 30.9865 35.37C30.7945 35.154 30.6475 34.905 30.5455 34.623C30.4495 34.341 30.4015 34.044 30.4015 33.732C30.4015 33.42 30.4495 33.123 30.5455 32.841C30.6475 32.559 30.7945 32.31 30.9865 32.094C31.1845 31.878 31.4275 31.707 31.7155 31.581C32.0095 31.455 32.3515 31.392 32.7415 31.392C33.1255 31.392 33.4645 31.455 33.7585 31.581C34.0525 31.707 34.2955 31.878 34.4875 32.094C34.6855 32.31 34.8325 32.559 34.9285 32.841C35.0305 33.123 35.0815 33.42 35.0815 33.732C35.0815 34.044 35.0305 34.341 34.9285 34.623C34.8325 34.905 34.6855 35.154 34.4875 35.37C34.2955 35.586 34.0525 35.757 33.7585 35.883C33.4645 36.009 33.1255 36.072 32.7415 36.072ZM32.7415 35.154C33.1375 35.154 33.4285 35.022 33.6145 34.758C33.8065 34.488 33.9025 34.146 33.9025 33.732C33.9025 33.318 33.8065 32.979 33.6145 32.715C33.4285 32.445 33.1375 32.31 32.7415 32.31C32.3455 32.31 32.0515 32.445 31.8595 32.715C31.6735 32.979 31.5805 33.318 31.5805 33.732C31.5805 34.146 31.6735 34.488 31.8595 34.758C32.0515 35.022 32.3455 35.154 32.7415 35.154ZM38.8519 36C38.8279 35.88 38.8129 35.763 38.8069 35.649C38.8009 35.535 38.7949 35.43 38.7889 35.334C38.6029 35.598 38.3869 35.79 38.1409 35.91C37.9009 36.024 37.6399 36.081 37.3579 36.081C36.9019 36.081 36.5389 35.937 36.2689 35.649C35.9989 35.355 35.8639 34.944 35.8639 34.416V31.464H37.0069V34.227C37.0069 34.515 37.0849 34.74 37.2409 34.902C37.3969 35.064 37.6009 35.145 37.8529 35.145C38.1589 35.145 38.3929 34.998 38.5549 34.704C38.7229 34.41 38.8069 33.996 38.8069 33.462V31.464H39.9499V36H38.8519ZM40.961 36V31.464H42.041C42.065 31.596 42.08 31.731 42.086 31.869C42.098 32.007 42.107 32.136 42.113 32.256C42.323 31.938 42.557 31.716 42.815 31.59C43.079 31.458 43.322 31.392 43.544 31.392C43.61 31.392 43.694 31.398 43.796 31.41C43.904 31.416 44.003 31.428 44.093 31.446L43.877 32.589C43.781 32.565 43.697 32.55 43.625 32.544C43.553 32.538 43.49 32.535 43.436 32.535C43.232 32.535 43.049 32.568 42.887 32.634C42.725 32.7 42.584 32.811 42.464 32.967C42.35 33.117 42.26 33.318 42.194 33.57C42.134 33.822 42.104 34.131 42.104 34.497V36H40.961ZM46.8059 36V31.464H47.9489V36H46.8059ZM48.0479 30.051C48.0479 30.237 47.9819 30.396 47.8499 30.528C47.7179 30.654 47.5589 30.717 47.3729 30.717C47.1869 30.717 47.0279 30.654 46.8959 30.528C46.7699 30.396 46.7069 30.237 46.7069 30.051C46.7069 29.865 46.7699 29.706 46.8959 29.574C47.0279 29.442 47.1869 29.376 47.3729 29.376C47.5589 29.376 47.7179 29.442 47.8499 29.574C47.9819 29.706 48.0479 29.865 48.0479 30.051ZM51.9849 36V33.237C51.9849 32.949 51.9069 32.724 51.7509 32.562C51.5949 32.4 51.3909 32.319 51.1389 32.319C50.8089 32.319 50.5509 32.466 50.3649 32.76C50.1849 33.054 50.0949 33.468 50.0949 34.002V36H48.9519V31.464H50.0499C50.0739 31.584 50.0889 31.701 50.0949 31.815C50.1009 31.929 50.1069 32.034 50.1129 32.13C50.3109 31.866 50.5389 31.677 50.7969 31.563C51.0549 31.443 51.3339 31.383 51.6339 31.383C52.0899 31.383 52.4529 31.53 52.7229 31.824C52.9929 32.112 53.1279 32.52 53.1279 33.048V36H51.9849ZM54.4162 36V32.436H53.8402V31.464H54.4162V31.086C54.4162 30.816 54.4552 30.579 54.5332 30.375C54.6172 30.171 54.7312 30 54.8752 29.862C55.0252 29.724 55.1992 29.622 55.3972 29.556C55.6012 29.484 55.8232 29.448 56.0632 29.448C56.3572 29.448 56.6392 29.493 56.9092 29.583L56.6752 30.474C56.5852 30.444 56.4982 30.42 56.4142 30.402C56.3302 30.378 56.2462 30.366 56.1622 30.366C55.9702 30.366 55.8202 30.432 55.7122 30.564C55.6102 30.69 55.5592 30.867 55.5592 31.095V31.464H56.5312V32.436H55.5592V36H54.4162ZM59.2669 36.072C58.8769 36.072 58.5349 36.009 58.2409 35.883C57.9529 35.757 57.7099 35.586 57.5119 35.37C57.3199 35.154 57.1729 34.905 57.0709 34.623C56.9749 34.341 56.9269 34.044 56.9269 33.732C56.9269 33.42 56.9749 33.123 57.0709 32.841C57.1729 32.559 57.3199 32.31 57.5119 32.094C57.7099 31.878 57.9529 31.707 58.2409 31.581C58.5349 31.455 58.8769 31.392 59.2669 31.392C59.6509 31.392 59.9899 31.455 60.2839 31.581C60.5779 31.707 60.8209 31.878 61.0129 32.094C61.2109 32.31 61.3579 32.559 61.4539 32.841C61.5559 33.123 61.6069 33.42 61.6069 33.732C61.6069 34.044 61.5559 34.341 61.4539 34.623C61.3579 34.905 61.2109 35.154 61.0129 35.37C60.8209 35.586 60.5779 35.757 60.2839 35.883C59.9899 36.009 59.6509 36.072 59.2669 36.072ZM59.2669 35.154C59.6629 35.154 59.9539 35.022 60.1399 34.758C60.3319 34.488 60.4279 34.146 60.4279 33.732C60.4279 33.318 60.3319 32.979 60.1399 32.715C59.9539 32.445 59.6629 32.31 59.2669 32.31C58.8709 32.31 58.5769 32.445 58.3849 32.715C58.1989 32.979 58.1059 33.318 58.1059 33.732C58.1059 34.146 58.1989 34.488 58.3849 34.758C58.5769 35.022 58.8709 35.154 59.2669 35.154ZM62.3623 36V31.464H63.4423C63.4663 31.596 63.4813 31.731 63.4873 31.869C63.4993 32.007 63.5083 32.136 63.5143 32.256C63.7243 31.938 63.9583 31.716 64.2163 31.59C64.4803 31.458 64.7233 31.392 64.9453 31.392C65.0113 31.392 65.0953 31.398 65.1973 31.41C65.3053 31.416 65.4043 31.428 65.4943 31.446L65.2783 32.589C65.1823 32.565 65.0983 32.55 65.0263 32.544C64.9543 32.538 64.8913 32.535 64.8373 32.535C64.6333 32.535 64.4503 32.568 64.2883 32.634C64.1263 32.7 63.9853 32.811 63.8653 32.967C63.7513 33.117 63.6613 33.318 63.5953 33.57C63.5353 33.822 63.5053 34.131 63.5053 34.497V36H62.3623ZM71.7702 36V33.237C71.7702 32.949 71.6892 32.724 71.5272 32.562C71.3712 32.4 71.1792 32.319 70.9512 32.319C70.6632 32.319 70.4442 32.454 70.2942 32.724C70.1502 32.988 70.0722 33.363 70.0602 33.849V36H68.9172V33.237C68.9172 32.949 68.8362 32.724 68.6742 32.562C68.5182 32.4 68.3262 32.319 68.0982 32.319C67.7982 32.319 67.5732 32.466 67.4232 32.76C67.2792 33.054 67.2072 33.468 67.2072 34.002V36H66.0642V31.464H67.1622C67.1862 31.584 67.2012 31.701 67.2072 31.815C67.2132 31.929 67.2192 32.034 67.2252 32.13C67.4112 31.848 67.6182 31.653 67.8462 31.545C68.0802 31.437 68.3232 31.383 68.5752 31.383C68.9172 31.383 69.1992 31.461 69.4212 31.617C69.6492 31.767 69.8202 31.968 69.9342 32.22C70.1622 31.914 70.4082 31.698 70.6722 31.572C70.9422 31.446 71.2062 31.383 71.4642 31.383C71.6742 31.383 71.8662 31.422 72.0402 31.5C72.2202 31.572 72.3732 31.68 72.4992 31.824C72.6312 31.962 72.7332 32.136 72.8052 32.346C72.8772 32.55 72.9132 32.784 72.9132 33.048V36H71.7702ZM76.1984 34.074H75.5864C75.0224 34.074 74.7404 34.266 74.7404 34.65C74.7404 34.752 74.7584 34.839 74.7944 34.911C74.8364 34.977 74.8874 35.034 74.9474 35.082C75.0134 35.124 75.0824 35.154 75.1544 35.172C75.2324 35.19 75.3074 35.199 75.3794 35.199C75.5114 35.199 75.6284 35.172 75.7304 35.118C75.8324 35.058 75.9164 34.983 75.9824 34.893C76.0544 34.797 76.1084 34.689 76.1444 34.569C76.1804 34.443 76.1984 34.314 76.1984 34.182V34.074ZM76.2614 36C76.2494 35.922 76.2374 35.838 76.2254 35.748C76.2134 35.658 76.2044 35.565 76.1984 35.469C76.0064 35.691 75.8054 35.85 75.5954 35.946C75.3914 36.036 75.1844 36.081 74.9744 36.081C74.8064 36.081 74.6384 36.054 74.4704 36C74.3084 35.946 74.1614 35.865 74.0294 35.757C73.8974 35.643 73.7894 35.502 73.7054 35.334C73.6274 35.16 73.5884 34.959 73.5884 34.731C73.5884 34.293 73.7504 33.954 74.0744 33.714C74.3984 33.474 74.8814 33.354 75.5234 33.354H76.1984V33.183C76.1984 32.895 76.1234 32.679 75.9734 32.535C75.8234 32.385 75.6044 32.31 75.3164 32.31C75.1184 32.31 74.9324 32.343 74.7584 32.409C74.5844 32.469 74.4074 32.55 74.2274 32.652L73.8854 31.878C74.1254 31.722 74.3774 31.602 74.6414 31.518C74.9114 31.428 75.1994 31.383 75.5054 31.383C75.7634 31.383 76.0034 31.419 76.2254 31.491C76.4474 31.563 76.6394 31.677 76.8014 31.833C76.9694 31.989 77.1014 32.196 77.1974 32.454C77.2934 32.712 77.3414 33.024 77.3414 33.39V36H76.2614ZM81.08 35.919C80.924 35.973 80.768 36.012 80.612 36.036C80.456 36.06 80.309 36.072 80.171 36.072C79.691 36.072 79.304 35.94 79.01 35.676C78.722 35.412 78.578 35.01 78.578 34.47V32.436H77.885V31.464H78.578V30.141L79.721 29.997V31.464H80.927V32.436H79.721V34.254C79.721 34.542 79.787 34.761 79.919 34.911C80.051 35.055 80.216 35.127 80.414 35.127C80.486 35.127 80.555 35.118 80.621 35.1C80.687 35.082 80.762 35.058 80.846 35.028L81.08 35.919ZM81.76 36V31.464H82.903V36H81.76ZM83.002 30.051C83.002 30.237 82.936 30.396 82.804 30.528C82.672 30.654 82.513 30.717 82.327 30.717C82.141 30.717 81.982 30.654 81.85 30.528C81.724 30.396 81.661 30.237 81.661 30.051C81.661 29.865 81.724 29.706 81.85 29.574C81.982 29.442 82.141 29.376 82.327 29.376C82.513 29.376 82.672 29.442 82.804 29.574C82.936 29.706 83.002 29.865 83.002 30.051ZM86.012 36.072C85.622 36.072 85.28 36.009 84.986 35.883C84.698 35.757 84.455 35.586 84.257 35.37C84.065 35.154 83.918 34.905 83.816 34.623C83.72 34.341 83.672 34.044 83.672 33.732C83.672 33.42 83.72 33.123 83.816 32.841C83.918 32.559 84.065 32.31 84.257 32.094C84.455 31.878 84.698 31.707 84.986 31.581C85.28 31.455 85.622 31.392 86.012 31.392C86.396 31.392 86.735 31.455 87.029 31.581C87.323 31.707 87.566 31.878 87.758 32.094C87.956 32.31 88.103 32.559 88.199 32.841C88.301 33.123 88.352 33.42 88.352 33.732C88.352 34.044 88.301 34.341 88.199 34.623C88.103 34.905 87.956 35.154 87.758 35.37C87.566 35.586 87.323 35.757 87.029 35.883C86.735 36.009 86.396 36.072 86.012 36.072ZM86.012 35.154C86.408 35.154 86.699 35.022 86.885 34.758C87.077 34.488 87.173 34.146 87.173 33.732C87.173 33.318 87.077 32.979 86.885 32.715C86.699 32.445 86.408 32.31 86.012 32.31C85.616 32.31 85.322 32.445 85.13 32.715C84.944 32.979 84.851 33.318 84.851 33.732C84.851 34.146 84.944 34.488 85.13 34.758C85.322 35.022 85.616 35.154 86.012 35.154ZM92.2124 36V33.237C92.2124 32.949 92.1344 32.724 91.9784 32.562C91.8224 32.4 91.6184 32.319 91.3664 32.319C91.0364 32.319 90.7784 32.466 90.5924 32.76C90.4124 33.054 90.3224 33.468 90.3224 34.002V36H89.1794V31.464H90.2774C90.3014 31.584 90.3164 31.701 90.3224 31.815C90.3284 31.929 90.3344 32.034 90.3404 32.13C90.5384 31.866 90.7664 31.677 91.0244 31.563C91.2824 31.443 91.5614 31.383 91.8614 31.383C92.3174 31.383 92.6804 31.53 92.9504 31.824C93.2204 32.112 93.3554 32.52 93.3554 33.048V36H92.2124Z" fill="#512B2B"/>
<rect x="45" y="227" width="68" height="2" rx="1" fill="#E3E3E3"/>
</svg>
