<svg width="424" height="242" viewBox="0 0 424 242" fill="none" xmlns="http://www.w3.org/2000/svg">
<rect width="424" height="242" rx="6" fill="white"/>
<circle cx="17" cy="17" r="5" fill="#E3E3E3"/>
<circle cx="31" cy="17" r="5" fill="#E3E3E3"/>
<circle cx="45" cy="17" r="5" fill="#E3E3E3"/>
<rect y="32" width="424" height="2" fill="#E3E3E3"/>
<rect y="34" width="424" height="17" fill="#F9F8F6"/>
<path d="M23 65C23 63.8954 23.8954 63 25 63H235C236.105 63 237 63.8954 237 65V215C237 216.105 236.105 217 235 217H25C23.8954 217 23 216.105 23 215V65Z" fill="#F9F8F6"/>
<path d="M249 65C249 63.8954 249.895 63 251 63H399C400.105 63 401 63.8954 401 65V215C401 216.105 400.105 217 399 217H251C249.895 217 249 216.105 249 215V65Z" fill="#F9F8F6"/>
<rect x="36" y="75" width="39" height="39" rx="2" fill="#EBE7E2"/>
<rect x="36" y="122" width="39" height="39" rx="2" fill="#EBE7E2"/>
<line x1="36" y1="171.5" x2="225" y2="171.5" stroke="#EBE7E2"/>
<line x1="261" y1="156.5" x2="389" y2="156.5" stroke="#EBE7E2"/>
<rect x="157" y="181" width="68" height="13" rx="2" fill="#EBE7E2"/>
<rect x="261" y="130" width="128" height="16" rx="2" fill="#72605E"/>
<rect x="261" y="109" width="82" height="16" fill="white"/>
<rect x="261" y="89" width="128" height="16" fill="white"/>
<rect x="351" y="109" width="38" height="16" fill="white"/>
<rect x="261" y="166" width="74" height="5" fill="#EBE7E2"/>
<rect x="83" y="80" width="74" height="5" fill="#EBE7E2"/>
<rect x="83" y="91" width="142" height="23" fill="#EBE7E2"/>
<rect x="83" y="138" width="142" height="23" fill="#EBE7E2"/>
<rect x="261" y="177" width="115" height="14" fill="#EBE7E2"/>
<rect x="83" y="126" width="57" height="5" fill="#EBE7E2"/>
<path d="M272.132 96.928L271.178 97.174L271.802 97.948L271.4 98.236L270.86 97.402L270.326 98.236L269.924 97.936L270.548 97.174L269.594 96.928L269.75 96.454L270.668 96.814L270.62 95.824H271.118L271.058 96.814L271.982 96.454L272.132 96.928ZM275.853 96.928L274.899 97.174L275.523 97.948L275.121 98.236L274.581 97.402L274.047 98.236L273.645 97.936L274.269 97.174L273.315 96.928L273.471 96.454L274.389 96.814L274.341 95.824H274.839L274.779 96.814L275.703 96.454L275.853 96.928ZM279.573 96.928L278.619 97.174L279.243 97.948L278.841 98.236L278.301 97.402L277.767 98.236L277.365 97.936L277.989 97.174L277.035 96.928L277.191 96.454L278.109 96.814L278.061 95.824H278.559L278.499 96.814L279.423 96.454L279.573 96.928ZM283.294 96.928L282.34 97.174L282.964 97.948L282.562 98.236L282.022 97.402L281.488 98.236L281.086 97.936L281.71 97.174L280.756 96.928L280.912 96.454L281.83 96.814L281.782 95.824H282.28L282.22 96.814L283.144 96.454L283.294 96.928ZM290.736 96.928L289.782 97.174L290.406 97.948L290.004 98.236L289.464 97.402L288.93 98.236L288.528 97.936L289.152 97.174L288.198 96.928L288.354 96.454L289.272 96.814L289.224 95.824H289.722L289.662 96.814L290.586 96.454L290.736 96.928ZM294.456 96.928L293.502 97.174L294.126 97.948L293.724 98.236L293.184 97.402L292.65 98.236L292.248 97.936L292.872 97.174L291.918 96.928L292.074 96.454L292.992 96.814L292.944 95.824H293.442L293.382 96.814L294.306 96.454L294.456 96.928ZM298.177 96.928L297.223 97.174L297.847 97.948L297.445 98.236L296.905 97.402L296.371 98.236L295.969 97.936L296.593 97.174L295.639 96.928L295.795 96.454L296.713 96.814L296.665 95.824H297.163L297.103 96.814L298.027 96.454L298.177 96.928ZM301.898 96.928L300.944 97.174L301.568 97.948L301.166 98.236L300.626 97.402L300.092 98.236L299.69 97.936L300.314 97.174L299.36 96.928L299.516 96.454L300.434 96.814L300.386 95.824H300.884L300.824 96.814L301.748 96.454L301.898 96.928ZM309.339 96.928L308.385 97.174L309.009 97.948L308.607 98.236L308.067 97.402L307.533 98.236L307.131 97.936L307.755 97.174L306.801 96.928L306.957 96.454L307.875 96.814L307.827 95.824H308.325L308.265 96.814L309.189 96.454L309.339 96.928ZM313.06 96.928L312.106 97.174L312.73 97.948L312.328 98.236L311.788 97.402L311.254 98.236L310.852 97.936L311.476 97.174L310.522 96.928L310.678 96.454L311.596 96.814L311.548 95.824H312.046L311.986 96.814L312.91 96.454L313.06 96.928ZM316.78 96.928L315.826 97.174L316.45 97.948L316.048 98.236L315.508 97.402L314.974 98.236L314.572 97.936L315.196 97.174L314.242 96.928L314.398 96.454L315.316 96.814L315.268 95.824H315.766L315.706 96.814L316.63 96.454L316.78 96.928ZM320.501 96.928L319.547 97.174L320.171 97.948L319.769 98.236L319.229 97.402L318.695 98.236L318.293 97.936L318.917 97.174L317.963 96.928L318.119 96.454L319.037 96.814L318.989 95.824H319.487L319.427 96.814L320.351 96.454L320.501 96.928ZM328.213 100H325.435V99.532H326.569V96.412L325.441 97.09V96.544L326.593 95.83H327.085V99.532H328.213V100ZM331.687 98.86C331.687 99.196 331.581 99.476 331.369 99.7C331.129 99.952 330.787 100.078 330.343 100.078C329.947 100.078 329.623 99.952 329.371 99.7C329.139 99.468 329.021 99.17 329.017 98.806H329.539C329.551 99.054 329.623 99.246 329.755 99.382C329.899 99.538 330.095 99.616 330.343 99.616C330.615 99.616 330.823 99.536 330.967 99.376C331.099 99.232 331.165 99.056 331.165 98.848C331.165 98.6 331.085 98.41 330.925 98.278C330.765 98.142 330.553 98.074 330.289 98.074H330.019V97.6H330.289C330.529 97.6 330.719 97.538 330.859 97.414C331.003 97.286 331.075 97.114 331.075 96.898C331.075 96.702 331.009 96.54 330.877 96.412C330.741 96.276 330.565 96.208 330.349 96.208C330.137 96.208 329.961 96.264 329.821 96.376C329.661 96.508 329.577 96.704 329.569 96.964H329.047C329.051 96.568 329.185 96.262 329.449 96.046C329.693 95.846 329.997 95.746 330.361 95.746C330.729 95.746 331.031 95.858 331.267 96.082C331.491 96.286 331.603 96.558 331.603 96.898C331.603 97.094 331.543 97.282 331.423 97.462C331.307 97.642 331.163 97.768 330.991 97.84C331.207 97.912 331.377 98.044 331.501 98.236C331.625 98.428 331.687 98.636 331.687 98.86ZM335.408 98.86C335.408 99.196 335.302 99.476 335.09 99.7C334.85 99.952 334.508 100.078 334.064 100.078C333.668 100.078 333.344 99.952 333.092 99.7C332.86 99.468 332.742 99.17 332.738 98.806H333.26C333.272 99.054 333.344 99.246 333.476 99.382C333.62 99.538 333.816 99.616 334.064 99.616C334.336 99.616 334.544 99.536 334.688 99.376C334.82 99.232 334.886 99.056 334.886 98.848C334.886 98.6 334.806 98.41 334.646 98.278C334.486 98.142 334.274 98.074 334.01 98.074H333.74V97.6H334.01C334.25 97.6 334.44 97.538 334.58 97.414C334.724 97.286 334.796 97.114 334.796 96.898C334.796 96.702 334.73 96.54 334.598 96.412C334.462 96.276 334.286 96.208 334.07 96.208C333.858 96.208 333.682 96.264 333.542 96.376C333.382 96.508 333.298 96.704 333.29 96.964H332.768C332.772 96.568 332.906 96.262 333.17 96.046C333.414 95.846 333.718 95.746 334.082 95.746C334.45 95.746 334.752 95.858 334.988 96.082C335.212 96.286 335.324 96.558 335.324 96.898C335.324 97.094 335.264 97.282 335.144 97.462C335.028 97.642 334.884 97.768 334.712 97.84C334.928 97.912 335.098 98.044 335.222 98.236C335.346 98.428 335.408 98.636 335.408 98.86ZM339.255 96.292L337.503 100H336.951L338.703 96.292H336.459V95.83H339.255V96.292Z" fill="black"/>
<path d="M361.468 117.644C361.452 118.056 361.296 118.4 361 118.676C360.708 118.948 360.354 119.084 359.938 119.084C359.518 119.084 359.152 118.932 358.84 118.628C358.624 118.416 358.482 118.17 358.414 117.89C358.35 117.61 358.318 117.272 358.318 116.876C358.318 116.48 358.35 116.142 358.414 115.862C358.482 115.582 358.624 115.336 358.84 115.124C359.152 114.82 359.518 114.668 359.938 114.668C360.354 114.668 360.708 114.8 361 115.064C361.292 115.328 361.446 115.666 361.462 116.078H360.904C360.892 115.838 360.81 115.638 360.658 115.478C360.474 115.274 360.234 115.172 359.938 115.172C359.666 115.172 359.426 115.28 359.218 115.496C359.11 115.608 359.028 115.752 358.972 115.928C358.92 116.104 358.89 116.252 358.882 116.372C358.874 116.492 358.87 116.66 358.87 116.876C358.87 117.092 358.874 117.26 358.882 117.38C358.89 117.5 358.92 117.648 358.972 117.824C359.028 118 359.11 118.144 359.218 118.256C359.426 118.472 359.666 118.58 359.938 118.58C360.21 118.58 360.44 118.492 360.628 118.316C360.816 118.14 360.912 117.916 360.916 117.644H361.468ZM365.219 114.746L363.899 119H363.263L361.943 114.746H362.513L363.593 118.382L364.655 114.746H365.219ZM368.909 117.644C368.893 118.056 368.737 118.4 368.441 118.676C368.149 118.948 367.795 119.084 367.379 119.084C366.959 119.084 366.593 118.932 366.281 118.628C366.065 118.416 365.923 118.17 365.855 117.89C365.791 117.61 365.759 117.272 365.759 116.876C365.759 116.48 365.791 116.142 365.855 115.862C365.923 115.582 366.065 115.336 366.281 115.124C366.593 114.82 366.959 114.668 367.379 114.668C367.795 114.668 368.149 114.8 368.441 115.064C368.733 115.328 368.887 115.666 368.903 116.078H368.345C368.333 115.838 368.251 115.638 368.099 115.478C367.915 115.274 367.675 115.172 367.379 115.172C367.107 115.172 366.867 115.28 366.659 115.496C366.551 115.608 366.469 115.752 366.413 115.928C366.361 116.104 366.331 116.252 366.323 116.372C366.315 116.492 366.311 116.66 366.311 116.876C366.311 117.092 366.315 117.26 366.323 117.38C366.331 117.5 366.361 117.648 366.413 117.824C366.469 118 366.551 118.144 366.659 118.256C366.867 118.472 367.107 118.58 367.379 118.58C367.651 118.58 367.881 118.492 368.069 118.316C368.257 118.14 368.353 117.916 368.357 117.644H368.909Z" fill="black"/>
<path d="M272.33 119H271.706L270.848 117.794L269.996 119H269.384L270.506 117.452L269.39 115.964H270.02L270.872 117.104L271.688 115.964H272.3L271.196 117.452L272.33 119ZM276.051 119H275.427L274.569 117.794L273.717 119H273.105L274.227 117.452L273.111 115.964H273.741L274.593 117.104L275.409 115.964H276.021L274.917 117.452L276.051 119ZM279.939 114.668L277.071 119.078H276.633L279.501 114.668H279.939ZM283.492 119H282.868L282.01 117.794L281.158 119H280.546L281.668 117.452L280.552 115.964H281.182L282.034 117.104L282.85 115.964H283.462L282.358 117.452L283.492 119ZM287.213 119H286.589L285.731 117.794L284.879 119H284.267L285.389 117.452L284.273 115.964H284.903L285.755 117.104L286.571 115.964H287.183L286.079 117.452L287.213 119Z" fill="black"/>
<path d="M310.396 140V135.8H312.028C312.244 135.8 312.436 135.83 312.604 135.89C312.772 135.95 312.914 136.034 313.03 136.142C313.146 136.25 313.234 136.382 313.294 136.538C313.354 136.69 313.384 136.86 313.384 137.048C313.384 137.424 313.266 137.724 313.03 137.948C312.794 138.168 312.46 138.278 312.028 138.278H311.194V140H310.396ZM311.89 137.618C312.13 137.618 312.3 137.564 312.4 137.456C312.504 137.344 312.556 137.198 312.556 137.018C312.556 136.842 312.506 136.706 312.406 136.61C312.306 136.51 312.13 136.46 311.878 136.46H311.194V137.618H311.89ZM315.229 138.716H314.821C314.445 138.716 314.257 138.844 314.257 139.1C314.257 139.168 314.269 139.226 314.293 139.274C314.321 139.318 314.355 139.356 314.395 139.388C314.439 139.416 314.485 139.436 314.533 139.448C314.585 139.46 314.635 139.466 314.683 139.466C314.771 139.466 314.849 139.448 314.917 139.412C314.985 139.372 315.041 139.322 315.085 139.262C315.133 139.198 315.169 139.126 315.193 139.046C315.217 138.962 315.229 138.876 315.229 138.788V138.716ZM315.271 140C315.263 139.948 315.255 139.892 315.247 139.832C315.239 139.772 315.233 139.71 315.229 139.646C315.101 139.794 314.967 139.9 314.827 139.964C314.691 140.024 314.553 140.054 314.413 140.054C314.301 140.054 314.189 140.036 314.077 140C313.969 139.964 313.871 139.91 313.783 139.838C313.695 139.762 313.623 139.668 313.567 139.556C313.515 139.44 313.489 139.306 313.489 139.154C313.489 138.862 313.597 138.636 313.813 138.476C314.029 138.316 314.351 138.236 314.779 138.236H315.229V138.122C315.229 137.93 315.179 137.786 315.079 137.69C314.979 137.59 314.833 137.54 314.641 137.54C314.509 137.54 314.385 137.562 314.269 137.606C314.153 137.646 314.035 137.7 313.915 137.768L313.687 137.252C313.847 137.148 314.015 137.068 314.191 137.012C314.371 136.952 314.563 136.922 314.767 136.922C314.939 136.922 315.099 136.946 315.247 136.994C315.395 137.042 315.523 137.118 315.631 137.222C315.743 137.326 315.831 137.464 315.895 137.636C315.959 137.808 315.991 138.016 315.991 138.26V140H315.271ZM316.385 140.612C316.649 140.568 316.847 140.488 316.979 140.372C317.115 140.26 317.217 140.122 317.285 139.958L317.333 139.844L316.235 136.976H317.003L317.705 138.866L318.353 136.976H319.121L318.083 139.862C318.011 140.062 317.931 140.24 317.843 140.396C317.755 140.556 317.653 140.694 317.537 140.81C317.421 140.93 317.283 141.028 317.123 141.104C316.967 141.18 316.785 141.236 316.577 141.272L316.385 140.612ZM321.733 140V136.826L321.055 137.102L320.815 136.502L322.129 135.8H322.531V140H321.733ZM325.452 137.138C325.452 136.938 325.388 136.772 325.26 136.64C325.136 136.504 324.958 136.436 324.726 136.436C324.49 136.436 324.308 136.504 324.18 136.64C324.056 136.772 323.994 136.938 323.994 137.138C323.994 137.338 324.056 137.504 324.18 137.636C324.308 137.768 324.49 137.834 324.726 137.834C324.958 137.834 325.136 137.768 325.26 137.636C325.388 137.504 325.452 137.338 325.452 137.138ZM323.916 140L324.93 138.374C324.87 138.398 324.798 138.416 324.714 138.428C324.63 138.44 324.554 138.446 324.486 138.446C324.322 138.446 324.164 138.414 324.012 138.35C323.864 138.282 323.732 138.19 323.616 138.074C323.5 137.958 323.406 137.82 323.334 137.66C323.266 137.5 323.232 137.324 323.232 137.132C323.232 136.952 323.264 136.778 323.328 136.61C323.396 136.442 323.494 136.296 323.622 136.172C323.75 136.044 323.906 135.942 324.09 135.866C324.278 135.79 324.49 135.752 324.726 135.752C324.962 135.752 325.172 135.79 325.356 135.866C325.544 135.942 325.7 136.044 325.824 136.172C325.952 136.296 326.048 136.444 326.112 136.616C326.18 136.784 326.214 136.96 326.214 137.144C326.214 137.26 326.194 137.392 326.154 137.54C326.114 137.688 326.03 137.87 325.902 138.086L324.726 140H323.916ZM326.969 140L328.661 136.46H326.681V135.8H329.519V136.19L327.755 140H326.969ZM329.977 140V139.64L331.489 137.96C331.573 137.868 331.645 137.784 331.705 137.708C331.765 137.628 331.815 137.554 331.855 137.486C331.895 137.418 331.925 137.35 331.945 137.282C331.965 137.214 331.975 137.142 331.975 137.066C331.975 136.99 331.963 136.914 331.939 136.838C331.919 136.762 331.885 136.694 331.837 136.634C331.789 136.574 331.725 136.526 331.645 136.49C331.569 136.454 331.475 136.436 331.363 136.436C331.171 136.436 331.021 136.496 330.913 136.616C330.809 136.732 330.747 136.9 330.727 137.12H329.983C329.995 136.936 330.029 136.762 330.085 136.598C330.145 136.43 330.231 136.284 330.343 136.16C330.455 136.032 330.595 135.932 330.763 135.86C330.931 135.788 331.131 135.752 331.363 135.752C331.567 135.752 331.757 135.782 331.933 135.842C332.109 135.902 332.261 135.988 332.389 136.1C332.517 136.208 332.617 136.34 332.689 136.496C332.765 136.652 332.803 136.828 332.803 137.024C332.803 137.26 332.753 137.47 332.653 137.654C332.553 137.838 332.421 138.02 332.257 138.2L331.207 139.34H332.815V140H329.977ZM335.43 140L334.302 138.638V140H333.54V135.692H334.302V138.158L335.226 136.976H336.102L334.986 138.362L336.318 140H335.43ZM336.673 140V136.976H337.393C337.409 137.064 337.419 137.154 337.423 137.246C337.431 137.338 337.437 137.424 337.441 137.504C337.581 137.292 337.737 137.144 337.909 137.06C338.085 136.972 338.247 136.928 338.395 136.928C338.439 136.928 338.495 136.932 338.563 136.94C338.635 136.944 338.701 136.952 338.761 136.964L338.617 137.726C338.553 137.71 338.497 137.7 338.449 137.696C338.401 137.692 338.359 137.69 338.323 137.69C338.187 137.69 338.065 137.712 337.957 137.756C337.849 137.8 337.755 137.874 337.675 137.978C337.599 138.078 337.539 138.212 337.495 138.38C337.455 138.548 337.435 138.754 337.435 138.998V140H336.673Z" fill="white"/>
<path d="M282.526 78.551C282.418 78.815 282.28 79.043 282.112 79.235C281.95 79.427 281.767 79.586 281.563 79.712C281.359 79.832 281.137 79.922 280.897 79.982C280.657 80.042 280.408 80.072 280.15 80.072C279.772 80.072 279.406 80.009 279.052 79.883C278.704 79.751 278.395 79.553 278.125 79.289C277.861 79.019 277.648 78.683 277.486 78.281C277.33 77.879 277.252 77.405 277.252 76.859C277.252 76.313 277.33 75.839 277.486 75.437C277.648 75.029 277.861 74.693 278.125 74.429C278.395 74.159 278.704 73.958 279.052 73.826C279.4 73.694 279.766 73.628 280.15 73.628C280.6 73.628 281.023 73.724 281.419 73.916C281.815 74.102 282.133 74.405 282.373 74.825L281.392 75.365C281.254 75.149 281.083 74.978 280.879 74.852C280.681 74.72 280.435 74.654 280.141 74.654C279.907 74.654 279.688 74.702 279.484 74.798C279.286 74.888 279.112 75.026 278.962 75.212C278.818 75.392 278.704 75.62 278.62 75.896C278.536 76.166 278.494 76.484 278.494 76.85C278.494 77.228 278.536 77.555 278.62 77.831C278.71 78.107 278.83 78.335 278.98 78.515C279.13 78.695 279.304 78.83 279.502 78.92C279.706 79.004 279.919 79.046 280.141 79.046C280.321 79.046 280.483 79.022 280.627 78.974C280.771 78.92 280.9 78.848 281.014 78.758C281.134 78.668 281.236 78.566 281.32 78.452C281.404 78.338 281.479 78.218 281.545 78.092L282.526 78.551ZM285.714 78.074H285.102C284.538 78.074 284.256 78.266 284.256 78.65C284.256 78.752 284.274 78.839 284.31 78.911C284.352 78.977 284.403 79.034 284.463 79.082C284.529 79.124 284.598 79.154 284.67 79.172C284.748 79.19 284.823 79.199 284.895 79.199C285.027 79.199 285.144 79.172 285.246 79.118C285.348 79.058 285.432 78.983 285.498 78.893C285.57 78.797 285.624 78.689 285.66 78.569C285.696 78.443 285.714 78.314 285.714 78.182V78.074ZM285.777 80C285.765 79.922 285.753 79.838 285.741 79.748C285.729 79.658 285.72 79.565 285.714 79.469C285.522 79.691 285.321 79.85 285.111 79.946C284.907 80.036 284.7 80.081 284.49 80.081C284.322 80.081 284.154 80.054 283.986 80C283.824 79.946 283.677 79.865 283.545 79.757C283.413 79.643 283.305 79.502 283.221 79.334C283.143 79.16 283.104 78.959 283.104 78.731C283.104 78.293 283.266 77.954 283.59 77.714C283.914 77.474 284.397 77.354 285.039 77.354H285.714V77.183C285.714 76.895 285.639 76.679 285.489 76.535C285.339 76.385 285.12 76.31 284.832 76.31C284.634 76.31 284.448 76.343 284.274 76.409C284.1 76.469 283.923 76.55 283.743 76.652L283.401 75.878C283.641 75.722 283.893 75.602 284.157 75.518C284.427 75.428 284.715 75.383 285.021 75.383C285.279 75.383 285.519 75.419 285.741 75.491C285.963 75.563 286.155 75.677 286.317 75.833C286.485 75.989 286.617 76.196 286.713 76.454C286.809 76.712 286.857 77.024 286.857 77.39V80H285.777ZM287.9 80V75.464H288.98C289.004 75.596 289.019 75.731 289.025 75.869C289.037 76.007 289.046 76.136 289.052 76.256C289.262 75.938 289.496 75.716 289.754 75.59C290.018 75.458 290.261 75.392 290.483 75.392C290.549 75.392 290.633 75.398 290.735 75.41C290.843 75.416 290.942 75.428 291.032 75.446L290.816 76.589C290.72 76.565 290.636 76.55 290.564 76.544C290.492 76.538 290.429 76.535 290.375 76.535C290.171 76.535 289.988 76.568 289.826 76.634C289.664 76.7 289.523 76.811 289.403 76.967C289.289 77.117 289.199 77.318 289.133 77.57C289.073 77.822 289.043 78.131 289.043 78.497V80H287.9ZM293.479 79.154C293.863 79.154 294.148 79.022 294.334 78.758C294.526 78.488 294.622 78.146 294.622 77.732C294.622 77.318 294.526 76.979 294.334 76.715C294.148 76.445 293.863 76.31 293.479 76.31C293.095 76.31 292.813 76.445 292.633 76.715C292.459 76.979 292.372 77.318 292.372 77.732C292.372 78.146 292.459 78.488 292.633 78.758C292.813 79.022 293.095 79.154 293.479 79.154ZM294.604 80C294.592 79.91 294.58 79.811 294.568 79.703C294.556 79.595 294.547 79.487 294.541 79.379C294.325 79.631 294.106 79.811 293.884 79.919C293.662 80.021 293.425 80.072 293.173 80.072C292.867 80.072 292.591 80.009 292.345 79.883C292.099 79.757 291.889 79.586 291.715 79.37C291.547 79.154 291.418 78.905 291.328 78.623C291.238 78.341 291.193 78.044 291.193 77.732C291.193 77.42 291.238 77.123 291.328 76.841C291.418 76.559 291.547 76.31 291.715 76.094C291.889 75.878 292.096 75.707 292.336 75.581C292.582 75.455 292.858 75.392 293.164 75.392C293.428 75.392 293.677 75.446 293.911 75.554C294.145 75.656 294.355 75.827 294.541 76.067V73.538H295.684V80H294.604Z" fill="#512B2B"/>
<path fill-rule="evenodd" clip-rule="evenodd" d="M271 73H263C262.445 73 262.005 73.445 262.005 74L262 80C262 80.555 262.445 81 263 81H271C271.555 81 272 80.555 272 80V74C272 73.445 271.555 73 271 73ZM270.5 80H263.5C263.225 80 263 79.775 263 79.5V77H271V79.5C271 79.775 270.775 80 270.5 80ZM263 75H271V74H263V75Z" fill="#512B2B"/>
</svg>
