<svg width="24" height="24" viewBox="0 0 24 24" fill="none" xmlns="http://www.w3.org/2000/svg">
<path d="M12.4679 16.5909C15.3856 16.5909 17.0416 15.2273 18.6187 13.2576C19.4861 12.197 20.5901 11.9697 21.3787 12.5758C22.1672 13.1818 22.2461 14.3182 21.3787 15.3788C19.0918 18.2576 16.1742 20 12.4679 20C8.44628 20 4.89776 17.8788 2.45322 14.1667C1.74352 13.1818 1.90124 12.1212 2.6898 11.5909C3.47835 11.0606 4.66119 11.2879 5.3709 12.3485C7.10573 14.8485 9.47141 16.5909 12.4679 16.5909ZM17.909 7.27273C17.909 8.63636 16.805 9.54545 15.5433 9.54545C14.2816 9.54545 13.1776 8.63636 13.1776 7.27273C13.1776 5.90909 14.2816 5 15.5433 5C16.805 5 17.909 5.98485 17.909 7.27273Z" fill="#FF5B24"/>
</svg>
