<svg width="24" height="24" viewBox="0 0 1094 742" xmlns="http://www.w3.org/2000/svg" lang="en-us" xml:lang="en-us" aria-labelledby="title">
    <title id="title">Trustly Logo</title>
    <g transform="matrix(1.39865 0 0 -1.39865 -0.154291 1275.48)">
        <g transform="translate(0 177.756) scale(0.1 0.1)">
            <path fill="#000000" d="m2200.71242,6212.89739l1197.63,0l0,955.36l955.35,-955.36l-955.35,-955.2l0,-488.84l1159.66,0l0,1444.04l1065.31,0l0,1124.74l-3422.6,0l0,-1124.74"/>
            <path fill="#000000" d="m821.85242,2475.90739l0,1350.99l-485.45,0l0,320.58l1318.95,0l0,-320.58l-485.44,0l0,-1350.99l-348.06,0"/>
            <path fill="#000000" d="m1600.40242,2475.90739l0,1213.61l320.57,0l0,-192.35c75.57,162.57 174.03,192.35 279.36,192.35l123.66,0l0,-325.16l-105.33,0c-151.12,0 -286.23,-87.01 -286.23,-352.63l0,-535.82l-332.03,0"/>
            <path fill="#000000" d="m2475.12242,2920.12739l0,769.39l332.02,0l0,-693.82c0,-141.97 68.69,-247.3 210.66,-247.3c137.39,0 224.4,105.33 224.4,245.01l0,696.11l332.03,0l0,-1213.61l-315.99,0l0,153.42c-80.14,-121.37 -199.22,-180.9 -350.36,-180.9c-265.62,0 -432.76,183.19 -432.76,471.7"/>
            <path fill="#000000" d="m3716.24242,2817.08739l288.51,66.41c13.74,-93.89 89.31,-164.87 233.56,-164.87c112.21,0 174.04,45.8 174.04,103.04c0,45.79 -25.19,80.15 -139.7,105.33l-190.05,41.22c-242.71,52.67 -345.75,164.86 -345.75,368.66c0,208.37 171.74,375.53 494.59,375.53c343.48,0 480.88,-206.08 494.62,-341.18l-290.82,-64.12c-13.74,70.99 -66.41,148.85 -210.67,148.85c-91.58,0 -160.28,-41.22 -160.28,-100.76c0,-50.37 34.35,-77.85 93.88,-91.59l277.07,-64.12c210.67,-48.08 309.12,-174.03 309.12,-352.63c0,-192.34 -153.42,-393.85 -503.75,-393.85c-384.69,0 -510.63,231.28 -524.37,364.08"/>
            <path fill="#000000" d="m5383.25242,2475.90739c-215.25,0 -359.5,119.07 -359.5,354.92l0,567.87l-203.79,0l0,290.82l203.79,0l0,270.2l332.02,96.17l0,-366.37l245.01,0l0,-290.82l-245.01,0l0,-508.33c0,-89.31 45.79,-123.66 135.09,-123.66l128.23,0l0,-290.8l-235.84,0"/>
            <path fill="#000000" d="m5800.03242,2475.90739l0,1671.57l332.02,0l0,-1671.57l-332.02,0"/>
            <path fill="#000000" d="m7132.69242,3689.51739l354.93,0l-506.03,-1648.68l-354.92,0l139.66,435.07l-183.18,0l-334.32,1213.61l354.93,0l249.58,-938.83l279.35,938.83"/>
        </g>
    </g>
</svg>
