<svg width="24" height="24" viewBox="0 0 24 24" fill="none" xmlns="http://www.w3.org/2000/svg">
<path d="M19.5697 8.31269H17.2415C17.2415 8.31269 17.2415 6.87616 17.2415 6.80185C17.2415 3.90402 14.8885 1.52631 11.9659 1.52631C9.04333 1.52631 6.69038 3.87925 6.69038 6.80185C6.69038 6.82662 6.69038 8.31269 6.69038 8.31269H4.38698C3.61917 8.31269 2.85137 8.68421 3.02474 9.57585L4.75849 17.3034C4.9071 17.9474 5.37769 18.418 6.17026 18.418H17.8359C18.6037 18.418 19.0991 17.9721 19.2477 17.3034L20.9814 9.57585C21.13 8.68421 20.3622 8.31269 19.5697 8.31269ZM15.3839 8.31269H8.59751V6.70278C8.59751 6.67801 8.59751 6.67801 8.59751 6.65325C8.59751 4.77089 10.1083 3.26005 11.9907 3.26005C13.8731 3.26005 15.3839 4.77089 15.3839 6.65325C15.3839 6.67801 15.3839 6.67801 15.3839 6.70278V8.31269ZM11.421 15.7678C11.1486 15.7678 11.0495 15.7183 11.0495 15.5201V11.8793C11.0495 11.7554 11 11.7307 10.8761 11.7307H9.81113C9.61299 11.7307 9.61299 11.6316 9.61299 11.5325V10.6409C9.61299 10.4675 9.73683 10.4427 9.93497 10.4427H13.9226C14.1207 10.4427 14.2446 10.4675 14.2446 10.6409V11.5325C14.2446 11.6316 14.2446 11.7307 14.0464 11.7307H12.9814C12.8576 11.7307 12.808 11.7554 12.808 11.8793V15.5449C12.808 15.743 12.709 15.7926 12.4365 15.7926H11.421V15.7678Z" fill="#33CC33"/>
<path d="M10.5294 20.9195C10.5294 22.0836 9.58823 23 8.44891 23C7.28482 23 6.36841 22.0588 6.36841 20.9195C6.36841 19.7554 7.30959 18.839 8.44891 18.839C9.58823 18.8142 10.5294 19.7554 10.5294 20.9195Z" fill="#33CC33"/>
<path d="M17.613 20.9195C17.613 22.0836 16.6718 23 15.5325 23C14.3684 23 13.452 22.0588 13.452 20.9195C13.452 19.7554 14.3931 18.839 15.5325 18.839C16.6718 18.8142 17.613 19.7554 17.613 20.9195Z" fill="#33CC33"/>
</svg>
