<svg width="24" height="24" viewBox="0 0 24 24" fill="none" xmlns="http://www.w3.org/2000/svg">
<rect x="1.18487" y="6.11963" width="21.6919" height="12.201" rx="0.95694" fill="#EE7023"/>
<rect x="1.18487" y="6.11963" width="21.6919" height="12.201" rx="0.95694" stroke="#EE7023"/>
<rect x="2.66386" y="15.4929" width="1.11503" height="0.95694" rx="0.119617" fill="white"/>
<rect x="9.72572" y="15.4929" width="1.11503" height="0.95694" rx="0.119617" fill="white"/>
<rect x="11.0266" y="15.4929" width="0.557515" height="0.95694" rx="0.119617" fill="white"/>
<rect x="3.96473" y="15.4929" width="1.85838" height="0.95694" rx="0.119617" fill="white"/>
<rect x="6.56647" y="15.4929" width="2.97341" height="0.95694" rx="0.119617" fill="white"/>
<rect x="11.7699" y="15.4929" width="2.23006" height="0.95694" rx="0.119617" fill="white"/>
<path d="M2.66386 11.1372C2.66386 10.8729 2.87808 10.6587 3.14233 10.6587H4.3852V11.6611H2.66386V11.1372Z" fill="#FDC129"/>
<path d="M6.27867 10.6587H7.52153C7.78578 10.6587 8 10.8729 8 11.1372V11.6611H6.27867V10.6587Z" fill="#FDC129"/>
<path d="M2.66386 12.9978H4.3852V14.0002H3.14233C2.87808 14.0002 2.66386 13.786 2.66386 13.5217V12.9978Z" fill="#FDC129"/>
<path d="M6.27867 12.9978H8V13.5217C8 13.786 7.78578 14.0002 7.52153 14.0002H6.27867V12.9978Z" fill="#FDC129"/>
<rect x="2.66386" y="11.8284" width="1.72133" height="1.00237" fill="#FDC129"/>
<rect x="4.3852" y="11.8284" width="1.89347" height="1.00237" fill="#FDC129"/>
<rect x="4.55733" y="10.6587" width="1.5492" height="1.00237" fill="#FDC129"/>
<rect x="4.55733" y="12.9978" width="1.5492" height="1.00237" fill="#FDC129"/>
<rect x="6.27867" y="11.8284" width="1.72133" height="1.00237" fill="#FDC129"/>
<ellipse cx="21.0896" cy="7.85417" rx="0.80112" ry="0.777514" fill="white"/>
</svg>
